<?xml version="1.0" encoding="UTF-8" standalone="no"?>
<!-- Created with Inkscape (http://www.inkscape.org/) -->

<svg
   xmlns:dc="http://purl.org/dc/elements/1.1/"
   xmlns:cc="http://creativecommons.org/ns#"
   xmlns:rdf="http://www.w3.org/1999/02/22-rdf-syntax-ns#"
   xmlns:svg="http://www.w3.org/2000/svg"
   xmlns="http://www.w3.org/2000/svg"
   xmlns:sodipodi="http://sodipodi.sourceforge.net/DTD/sodipodi-0.dtd"
   xmlns:inkscape="http://www.inkscape.org/namespaces/inkscape"
   width="800px"
   height="600px"
   id="svg3930"
   version="1.1"
   inkscape:version="0.48.3.1 r9886"
   sodipodi:docname="bg.svg">
  <defs
     id="defs3932" />
  <sodipodi:namedview
     id="base"
     pagecolor="#ffffff"
     bordercolor="#666666"
     borderopacity="1.0"
     inkscape:pageopacity="0.0"
     inkscape:pageshadow="2"
     inkscape:zoom="0.6"
     inkscape:cx="113.33333"
     inkscape:cy="300"
     inkscape:current-layer="layer1"
     inkscape:document-units="px"
     showgrid="false"
     inkscape:window-width="1680"
     inkscape:window-height="988"
     inkscape:window-x="-8"
     inkscape:window-y="-8"
     inkscape:window-maximized="1" />
  <metadata
     id="metadata3935">
    <rdf:RDF>
      <cc:Work
         rdf:about="">
        <dc:format>image/svg+xml</dc:format>
        <dc:type
           rdf:resource="http://purl.org/dc/dcmitype/StillImage" />
        <dc:title></dc:title>
      </cc:Work>
    </rdf:RDF>
  </metadata>
  <g
     id="layer1"
     inkscape:label="Layer 1"
     inkscape:groupmode="layer">
    <path
       style="fill:#63d076;fill-opacity:1;stroke:none"
       d="M 291.66667,99.290388 C 394.68296,90.536199 504.05904,92.967041 605,122.65953 c 66.28026,19.49682 130.86668,50.99938 195,74.35639 77.23027,28.12684 176.66667,46.17999 176.66667,176.33084 0,26.95089 1.45008,55.88193 -16.66667,74.35638 -41.40819,42.22577 -97.87576,63.46327 -150,70.10744 -65.33714,8.32841 -136.64202,-6.63503 -201.66667,-16.99574 -93.60798,-14.91504 -191.38667,12.79142 -285,-2.12447 -99.23271,-15.81126 -358.076568,44.94113 -430,-46.73829 -139.02907,-208.1965 232.68781,-338.1974 398.33334,-352.661692 z"
       id="path3942"
       inkscape:connector-curvature="0"
       sodipodi:nodetypes="cssssssscc" />
    <path
       style="fill:#298739;fill-opacity:1;stroke:none"
       d="m -39.67573,351.26444 c 116.090557,-33.55015 260.92925,-61.53417 391.28337,-54.52506 73.86974,3.97195 172.13284,12.08372 245.65016,18.52651 54.7765,4.80042 96.7887,-0.71327 151.3066,4.06448 18.9817,1.66349 223.3464,35.81416 227.9892,28.2596 C 1013.3318,287.7458 918.5037,129.71121 856.7183,86.843917 778.3285,32.456327 657.179,60.433787 566.9197,52.523787 418.113,39.482907 273.14903,24.646317 122.96549,43.914707 c -43.04433,5.52254 -109.90223,8.29826 -147.37035,28.79588 -13.82268,7.56195 -27.5839,30.661593 -36.76828,43.054023 -65.95114,88.98748 -80.22482,133.79249 -56.61033,232.71243 20.517307,1.73578 62.88239,0.32326 78.10774,2.7874 z"
       id="path3938-5"
       inkscape:connector-curvature="0"
       sodipodi:nodetypes="cssssssssscc" />
    <path
       style="fill:#876129;fill-opacity:1;stroke:none"
       d="m -103.89659,689.06962 c 107.0371964,-38.10114 252.0402,-66.5743 370,-75 96.81571,-6.91541 194.09409,-0.38539 290,8.33333 75.69801,6.88164 157.40946,24.69205 228.33336,48.33333 28.054,9.35133 104.5383,41.06417 133.3333,26.66667 22.854,-11.427 73.26527,-185.01361 23.3333,-195 -88.4178,-17.68357 -176.5003,-58.7292 -266.6666,-70 -66.61206,-8.3265 -133.55839,-11.69479 -200.00003,-20 -51.44112,-6.43014 -105.12969,5.72633 -156.66667,0 -55.3702,-6.15225 -118.06797,-10.87756 -173.33333,-1.66667 -35.16746,5.86125 -65.357183,27.67859 -96.666673,43.33334 -109.97528,54.98764 -195.524207,88.52135 -173.333327,221.66666"
       id="path3940"
       inkscape:connector-curvature="0"
       sodipodi:nodetypes="cssssssssssc" />
    <path
       style="fill:#56ddd8;fill-opacity:1;stroke:none"
       d="m -47.472793,-111.27377 c 100.07618,61.851349 262.641113,78.751494 393.850433,73.946148 74.35437,-2.723105 148.09812,-4.856491 222.09773,-9.273577 55.13589,-3.291095 107.48931,-18.935908 162.36488,-22.211466 19.1062,-1.140464 134.22131,-27.981593 138.89447,-22.8023 37.01948,41.028297 197.15968,191.135772 134.96898,220.524965 -78.90407,37.28735 -329.17369,73.81534 -420.03319,68.52938 -161.4496,-9.3927 -231.96231,-6.45772 -381.86679,-10.76439 -55.0239,-1.58081 -290.623255,-30.68917 -328.3372,-44.74205 -13.91336,-5.18435 33.181222,-95.388182 21.32383,-99.517212 -38.97112,-13.570689 -27.1991,-90.816268 -3.42969,-158.634348 20.651901,-1.19003 44.841313,6.63424 60.166547,4.94485 z"
       id="path3938"
       inkscape:connector-curvature="0"
       sodipodi:nodetypes="cssssssssscc" />
  </g>
</svg>
