<?xml version="1.0" encoding="UTF-8" standalone="no"?>
<!-- Created with Inkscape (http://www.inkscape.org/) -->

<svg
   xmlns:dc="http://purl.org/dc/elements/1.1/"
   xmlns:cc="http://creativecommons.org/ns#"
   xmlns:rdf="http://www.w3.org/1999/02/22-rdf-syntax-ns#"
   xmlns:svg="http://www.w3.org/2000/svg"
   xmlns="http://www.w3.org/2000/svg"
   xmlns:sodipodi="http://sodipodi.sourceforge.net/DTD/sodipodi-0.dtd"
   xmlns:inkscape="http://www.inkscape.org/namespaces/inkscape"
   width="210mm"
   height="297mm"
   id="svg2"
   version="1.1"
   inkscape:version="0.48.3.1 r9886"
   sodipodi:docname="bird1_3.svg">
  <defs
     id="defs4" />
  <sodipodi:namedview
     id="base"
     pagecolor="#ffffff"
     bordercolor="#666666"
     borderopacity="1.0"
     inkscape:pageopacity="0.0"
     inkscape:pageshadow="2"
     inkscape:zoom="2.8"
     inkscape:cx="24.613241"
     inkscape:cy="1045.1329"
     inkscape:document-units="px"
     inkscape:current-layer="layer3"
     showgrid="false"
     inkscape:window-width="1680"
     inkscape:window-height="988"
     inkscape:window-x="-8"
     inkscape:window-y="-8"
     inkscape:window-maximized="1" />
  <metadata
     id="metadata7">
    <rdf:RDF>
      <cc:Work
         rdf:about="">
        <dc:format>image/svg+xml</dc:format>
        <dc:type
           rdf:resource="http://purl.org/dc/dcmitype/StillImage" />
        <dc:title></dc:title>
      </cc:Work>
    </rdf:RDF>
  </metadata>
  <g
     inkscape:groupmode="layer"
     id="layer3"
     inkscape:label="Calque#1">
    <path
       style="fill:#e2adb7;fill-opacity:1;stroke:none"
       d="m -2.0176145,-0.8798581 c -0.5329621,5.3741164 1.53024684,10.4663703 -0.2011994,15.3262891 -0.2740929,0.76934 -5.6020823,2.371571 -7.8465901,4.04316 5.4569455,-1.408195 7.8267433,-1.421802 9.52194317,-1.421802 1.41527593,0 2.12389553,-0.268537 5.43721003,0.320365 0.441016,0.07839 4.3943019,1.397994 4.001067,0.212858 C 8.0835149,15.155913 2.3192102,14.78564 2.10098,14.553934 -0.28077787,12.025111 1.1318974,3.4973211 1.1318974,-0.6226281"
       id="path5137"
       inkscape:connector-curvature="0"
       sodipodi:nodetypes="cscssssc" />
    <path
       style="fill:#9d9384;fill-opacity:1;stroke:none"
       d="m 47.878027,-54.048443 c -1.23622,-2.448257 -3.813455,-8.93477 -6.735877,-12.691615 -2.922421,-3.756844 -6.190029,-4.78402 -11.664138,-3.45646 -5.889183,1.428223 -14.740263,13.41413 -16.729175,19.749293 -0.999034,3.182165 -2.590192,8.931448 -4.8454073,9.51751 -16.4463114,4.273893 -26.4928247,11.527758 -38.8133497,24.609042 -10.668721,11.3274878 -14.723623,13.9736026 -19.110591,17.4241202 -1.73669,1.3659728 -4.534976,4.6438351 -7.086262,6.8270353 0.60543,0.6428154 6.729667,-1.2123609 7.78431,-1.7722453 7.491444,-3.9770082 14.033754,-1.3658982 22.606287,-1.04797 6.829891,0.253299 18.3912102,-1.5976625 22.7755575,-2.6255466 5.0303574,-1.1793373 22.1660805,-3.3915727 29.0452395,-14.3474676 4.881032,-7.773632 7.982008,-17.219204 8.274766,-26.065233 0.281103,-8.493865 0.112131,-28.340334 14.49864,-16.120463 z"
       id="path5135"
       inkscape:connector-curvature="0"
       sodipodi:nodetypes="csssssscsssssc" />
    <path
       style="fill:#b5aea2;fill-opacity:1;stroke:none"
       d="M -6.6517862,-31.763393 C -14.068877,-27.62206 -21.509387,-18.137355 -24.0625,-15.96875 -28.816367,-11.930822 -40.962177,-2.5133503 -46.276786,0.30803569 -35.649669,1.9703318 -28.766306,1 -26.75,1 -18.402427,1 3.9592967,-9.335797 6.4151785,-12.8125 8.8710604,-16.289203 10.676949,-26.473558 7.8281249,-29.520089 4.9793009,-32.56662 0.76530415,-35.904726 -6.6517862,-31.763393 z"
       id="path5139"
       inkscape:connector-curvature="0"
       sodipodi:nodetypes="zscszzz" />
    <path
       sodipodi:type="arc"
       style="fill:#363636;fill-opacity:1;stroke:none"
       id="path5143"
       sodipodi:cx="700"
       sodipodi:cy="-3.3521068"
       sodipodi:rx="28.571428"
       sodipodi:ry="24.285715"
       d="m 728.57143,-3.3521068 a 28.571428,24.285715 0 1 1 -57.14286,0 28.571428,24.285715 0 1 1 57.14286,0 z"
       transform="matrix(0.10193003,0,0,0.12732228,-38.217762,-62.491144)" />
  </g>
</svg>
