<?xml version="1.0" encoding="UTF-8" standalone="no"?>
<!-- Created with Inkscape (http://www.inkscape.org/) -->

<svg
   xmlns:dc="http://purl.org/dc/elements/1.1/"
   xmlns:cc="http://creativecommons.org/ns#"
   xmlns:rdf="http://www.w3.org/1999/02/22-rdf-syntax-ns#"
   xmlns:svg="http://www.w3.org/2000/svg"
   xmlns="http://www.w3.org/2000/svg"
   xmlns:sodipodi="http://sodipodi.sourceforge.net/DTD/sodipodi-0.dtd"
   xmlns:inkscape="http://www.inkscape.org/namespaces/inkscape"
   width="210mm"
   height="297mm"
   id="svg2"
   version="1.1"
   inkscape:version="0.48.3.1 r9886"
   sodipodi:docname="bird1_5.svg">
  <defs
     id="defs4" />
  <sodipodi:namedview
     id="base"
     pagecolor="#ffffff"
     bordercolor="#666666"
     borderopacity="1.0"
     inkscape:pageopacity="0.0"
     inkscape:pageshadow="2"
     inkscape:zoom="0.9899495"
     inkscape:cx="-262.81202"
     inkscape:cy="957.81325"
     inkscape:document-units="px"
     inkscape:current-layer="layer5"
     showgrid="false"
     inkscape:window-width="1680"
     inkscape:window-height="988"
     inkscape:window-x="-8"
     inkscape:window-y="-8"
     inkscape:window-maximized="1" />
  <metadata
     id="metadata7">
    <rdf:RDF>
      <cc:Work
         rdf:about="">
        <dc:format>image/svg+xml</dc:format>
        <dc:type
           rdf:resource="http://purl.org/dc/dcmitype/StillImage" />
        <dc:title></dc:title>
      </cc:Work>
    </rdf:RDF>
  </metadata>
  <g
     inkscape:groupmode="layer"
     id="layer2"
     inkscape:label="shadowback">
    <path
       style="fill:#c18b94;fill-opacity:1;stroke:none"
       d="m 0.06917879,-1.5677301 c -0.532962,5.374117 1.53024701,10.46637 -0.201199,15.3262891 -0.274093,0.76934 -5.60208199,2.371571 -7.84658999,4.04316 5.456945,-1.408195 7.82674299,-1.421802 9.521943,-1.421802 1.415276,0 2.123896,-0.268537 5.43721,0.320365 0.441016,0.07839 4.3943022,1.397994 4.0010672,0.212858 C 10.170309,14.468041 4.4060038,14.097768 4.1877738,13.866062 1.8060158,11.337239 3.2186908,2.8094489 3.2186908,-1.3105001"
       id="path5137-1"
       inkscape:connector-curvature="0"
       sodipodi:nodetypes="cscssssc" />
  </g>
  <g
     inkscape:groupmode="layer"
     id="layer3"
     inkscape:label="Calque#1">
    <path
       style="fill:#e2adb7;fill-opacity:1;stroke:none"
       d="m -2.0176145,-0.8798581 c -0.5329621,5.3741164 1.53024684,10.4663703 -0.2011994,15.3262891 -0.2740929,0.76934 -5.6020823,2.371571 -7.8465901,4.04316 5.4569455,-1.408195 7.8267433,-1.421802 9.52194317,-1.421802 1.41527593,0 2.12389553,-0.268537 5.43721003,0.320365 0.441016,0.07839 4.3943019,1.397994 4.001067,0.212858 C 8.0835149,15.155913 2.3192102,14.78564 2.10098,14.553934 -0.28077787,12.025111 1.1318974,3.4973211 1.1318974,-0.6226281"
       id="path5137"
       inkscape:connector-curvature="0"
       sodipodi:nodetypes="cscssssc" />
    <path
       style="fill:#9d9384;fill-opacity:1;stroke:none"
       d="m 47.878027,-54.048443 c -1.23622,-2.448257 -3.813455,-8.93477 -6.735877,-12.691615 -2.922421,-3.756844 -6.190029,-4.78402 -11.664138,-3.45646 -5.889183,1.428223 -14.740263,13.41413 -16.729175,19.749293 -0.999034,3.182165 -2.590192,8.931448 -4.8454073,9.51751 -16.4463114,4.273893 -26.4928247,11.527758 -38.8133497,24.609042 -10.668721,11.3274878 -14.723623,13.9736026 -19.110591,17.4241202 -1.73669,1.3659728 -4.534976,4.6438351 -7.086262,6.8270353 0.60543,0.6428154 6.729667,-1.2123609 7.78431,-1.7722453 7.491444,-3.9770082 14.033754,-1.3658982 22.606287,-1.04797 6.829891,0.253299 18.3912102,-1.5976625 22.7755575,-2.6255466 5.0303574,-1.1793373 22.1660805,-3.3915727 29.0452395,-14.3474676 4.881032,-7.773632 7.982008,-17.219204 8.274766,-26.065233 0.281103,-8.493865 0.112131,-28.340334 14.49864,-16.120463 z"
       id="path5135"
       inkscape:connector-curvature="0"
       sodipodi:nodetypes="csssssscsssssc" />
    <path
       style="fill:#b5aea2;fill-opacity:1;stroke:none"
       d="M -6.6517862,-31.763393 C -14.068877,-27.62206 -21.509387,-18.137355 -24.0625,-15.96875 -28.816367,-11.930822 -40.962177,-2.5133503 -46.276786,0.30803569 -35.649669,1.9703318 -28.766306,1 -26.75,1 -18.402427,1 3.9592967,-9.335797 6.4151785,-12.8125 8.8710604,-16.289203 10.676949,-26.473558 7.8281249,-29.520089 4.9793009,-32.56662 0.76530415,-35.904726 -6.6517862,-31.763393 z"
       id="path5139"
       inkscape:connector-curvature="0"
       sodipodi:nodetypes="zscszzz" />
    <path
       sodipodi:type="arc"
       style="fill:#363636;fill-opacity:1;stroke:none"
       id="path5143"
       sodipodi:cx="700"
       sodipodi:cy="-3.3521068"
       sodipodi:rx="28.571428"
       sodipodi:ry="24.285715"
       d="m 728.57143,-3.3521068 a 28.571428,24.285715 0 1 1 -57.14286,0 28.571428,24.285715 0 1 1 57.14286,0 z"
       transform="matrix(0.10193003,0,0,0.12732228,-38.217762,-62.491144)" />
  </g>
  <g
     inkscape:groupmode="layer"
     id="layer1"
     inkscape:label="shadow">
    <path
       style="fill:#928775;fill-opacity:1;stroke:none"
       d="m 47.946711,-54.237126 c -1.23622,-2.448257 0.108948,-1.510915 -3.705412,-4.357857 -3.680045,-2.746691 -5.937495,-3.268791 -10.148914,0.584151 -4.471052,4.090475 -6.274295,13.7097 -6.627649,20.001831 -0.352658,6.279736 0.0032,7.368539 0.205355,10.275125 C 28.65816,-13.52991 13.804173,-4.0842884 -6.3450339,0.41069904 -21.532352,3.798763 -38.998864,1.7573957 -44.648523,2.9350695 -46.811548,3.385953 -54.4868,5.5585994 -57.038086,7.7417994 c 0.60543,0.642816 6.729667,-1.21236 7.78431,-1.772245 7.491444,-3.977008 14.033754,-1.365898 22.606287,-1.04797 6.829891,0.253299 18.3912097,-1.597662 22.7755567,-2.625546 5.030358,-1.179338 22.1660813,-3.391573 29.0452403,-14.3474684 4.881032,-7.773632 7.224394,-17.471742 7.517152,-26.31777 0.281103,-8.493865 0.869745,-28.087797 15.256251,-15.867926 z"
       id="path5135-7"
       inkscape:connector-curvature="0"
       sodipodi:nodetypes="csssssscsssssc" />
    <path
       style="fill:#a9a193;fill-opacity:1;stroke:none"
       d="M 0.48138587,-15.392383 C -6.9357056,-11.25105 -16.396521,-6.8171087 -18.949634,-4.6485037 c -4.753867,4.03792804 -21.192825,2.3437219 -26.507433,5.16510832 10.627116,1.66229598 17.510479,0.69196398 19.526785,0.69196398 8.347573,0 30.7092975,-10.3357972 33.1651785,-13.8125006 2.4558822,-3.476703 3.2516185,-13.661057 0.4027945,-16.707588 -2.848824,-3.046531 0.2607849,9.777804 -7.15630513,13.919137 z"
       id="path5139-4"
       inkscape:connector-curvature="0"
       sodipodi:nodetypes="zscszzz" />
  </g>
  <g
     inkscape:groupmode="layer"
     id="layer5"
     inkscape:label="lightback">
    <path
       style="fill:#a9a093;fill-opacity:1;stroke:none;display:inline"
       d="m 30.521584,-67.369109 c 7.19262,-2.129658 13.611681,4.449751 10.68925,0.692906 -2.922421,-3.756844 -6.190029,-4.78402 -11.664138,-3.45646 -5.889183,1.428223 -14.740263,13.41413 -16.729175,19.749293 -0.999034,3.182165 -2.590192,8.931448 -4.8454064,9.51751 -16.446312,4.273893 -26.4928256,11.527758 -38.8133506,24.609042 -10.66872,11.327488 -14.723621,13.973603 -19.110589,17.4241201 -1.73669,1.365974 -4.534976,4.6438356 -7.086262,6.8270356 0.60543,0.642816 14.558349,-11.3138854 15.612992,-11.8737704 7.491443,-3.9770086 17.645902,-13.8286133 23.616438,-19.9883303 7.587505,-7.827921 14.098062,-9.93142 18.48240903,-10.959304 5.03035797,-1.179339 5.49856347,9.487871 12.37772297,-1.468024 4.881032,-7.773632 0.500655,-7.1812 4.234155,-15.206093 4.069175,-8.746403 6.043334,-13.738267 13.235954,-15.867925 z"
       id="path5135-9"
       inkscape:connector-curvature="0"
       sodipodi:nodetypes="zsssssscsssssz" />
    <path
       style="fill:#c3bdb3;fill-opacity:1;stroke:none;display:inline"
       d="m -5.8823618,-33.103476 c -7.4170912,4.141333 -14.8576012,13.626038 -17.4107142,15.794643 -4.753867,4.037928 -16.899677,13.4553997 -22.214286,16.2767857 14.415189,-3.893543 26.686314,-13.5406827 28.113083,-14.9654007 9.6102632,-9.596449 5.903156,-6.702696 10.9418222,-12.549809 5.038666,-5.847113 11.985096,-1.213099 12.524628,-2.565453 0.539533,-1.352355 -4.537443,-6.132096 -11.954533,-1.990766 z"
       id="path5139-0"
       inkscape:connector-curvature="0"
       sodipodi:nodetypes="zscszzz" />
  </g>
</svg>
