<?xml version="1.0" encoding="UTF-8" standalone="no"?>
<!-- Created with Inkscape (http://www.inkscape.org/) -->

<svg
   xmlns:dc="http://purl.org/dc/elements/1.1/"
   xmlns:cc="http://creativecommons.org/ns#"
   xmlns:rdf="http://www.w3.org/1999/02/22-rdf-syntax-ns#"
   xmlns:svg="http://www.w3.org/2000/svg"
   xmlns="http://www.w3.org/2000/svg"
   xmlns:sodipodi="http://sodipodi.sourceforge.net/DTD/sodipodi-0.dtd"
   xmlns:inkscape="http://www.inkscape.org/namespaces/inkscape"
   width="210mm"
   height="297mm"
   id="svg2"
   version="1.1"
   inkscape:version="0.48.3.1 r9886"
   sodipodi:docname="bird1_2.svg">
  <defs
     id="defs4" />
  <sodipodi:namedview
     id="base"
     pagecolor="#ffffff"
     bordercolor="#666666"
     borderopacity="1.0"
     inkscape:pageopacity="0.0"
     inkscape:pageshadow="2"
     inkscape:zoom="3.959798"
     inkscape:cx="-22.349298"
     inkscape:cy="1058.295"
     inkscape:document-units="px"
     inkscape:current-layer="layer3"
     showgrid="false"
     inkscape:window-width="1680"
     inkscape:window-height="988"
     inkscape:window-x="-8"
     inkscape:window-y="-8"
     inkscape:window-maximized="1" />
  <metadata
     id="metadata7">
    <rdf:RDF>
      <cc:Work
         rdf:about="">
        <dc:format>image/svg+xml</dc:format>
        <dc:type
           rdf:resource="http://purl.org/dc/dcmitype/StillImage" />
        <dc:title />
      </cc:Work>
    </rdf:RDF>
  </metadata>
  <g
     inkscape:groupmode="layer"
     id="layer3"
     inkscape:label="Calque#1">
    <path
       style="fill:#e2adb7;fill-opacity:1;stroke:none"
       d="m -2.0176145,-0.8798581 c -0.5329621,5.3741164 0.8989015,11.9815991 -1.2113519,16.4627111 -0.3479544,0.738876 -7.0541766,3.571127 -7.0258416,3.601218 1.2900667,1.369724 7.511071,-1.800609 9.2062709,-1.800609 1.41527593,0 6.3187405,-0.75076 7.2681115,0.25723 0.028571,0.03034 2.3209013,1.394239 2.4227037,1.286149 C 10.845465,16.58761 2.3192102,14.78564 2.10098,14.553934 -0.28077787,12.025111 1.1318974,3.4973211 1.1318974,-0.6226281"
       id="path5137"
       inkscape:connector-curvature="0"
       sodipodi:nodetypes="cscssssc" />
    <path
       style="fill:#9d9384;fill-opacity:1;stroke:none"
       d="m 54.696557,-53.03829 c -5.25036,-5.401592 -15.464306,-19.160335 -22.483954,-15.433789 -2.67621,1.420729 -6.28731,2.070308 -8.467817,7.954825 -1.733827,4.679066 -2.425349,6.902448 -6.197724,11.585258 -2.092372,2.597349 -8.0460487,6.306052 -9.6436323,8.002281 -11.0891686,11.773893 -29.3499677,13.670615 -41.6704927,26.751899 -10.668721,11.3274879 -22.737025,8.1540889 -30.04152,23.6651466 -0.182402,0.3873309 -1.249352,2.7891854 -1.211352,2.8295284 0.60543,0.642815 11.785686,-3.8130231 12.840329,-4.3729075 7.491444,-3.9770082 18.805106,4.1482315 26.892001,1.2861492 4.329891,-1.5324152 12.976665,-4.2604317 15.9898437,-7.4596658 2.7147,-2.882326 27.5232233,-2.677287 34.4023823,-13.6331819 4.881032,-7.773632 6.646759,-15.914972 10.417623,-23.922376 1.747695,-3.711218 6.038238,-10.82694 6.891947,-15.992449 0.853708,-5.165509 5.34165,-4.087658 12.282366,-1.260718 z"
       id="path5135"
       inkscape:connector-curvature="0"
       sodipodi:nodetypes="csssssscssssssc" />
    <path
       style="fill:#c7c7c7;fill-opacity:1;stroke:none"
       d="m -18.261763,-20.865792 c 0.165819,0.425523 -3.261377,2.718762 -5.81449,4.887367 -4.753867,4.037928 -11.159769,9.0111869 -16.474378,11.8325729 -6.158598,3.269439 11.793099,5.144598 13.809405,5.144598 8.347573,0 23.4338631,-4.364708 28.3456268,-11.3181139"
       id="path5139"
       inkscape:connector-curvature="0" />
    <path
       sodipodi:type="arc"
       style="fill:#000000;fill-opacity:1;stroke:none"
       id="path5143"
       sodipodi:cx="700"
       sodipodi:cy="-3.3521068"
       sodipodi:rx="28.571428"
       sodipodi:ry="24.285715"
       d="m 728.57143,-3.3521068 a 28.571428,24.285715 0 1 1 -57.14286,0 28.571428,24.285715 0 1 1 57.14286,0 z"
       transform="matrix(0.10193003,0,0,0.12732228,-33.419537,-59.965763)" />
  </g>
</svg>
