<?xml version="1.0" encoding="UTF-8" standalone="no"?>
<!-- Created with Inkscape (http://www.inkscape.org/) -->

<svg
   xmlns:dc="http://purl.org/dc/elements/1.1/"
   xmlns:cc="http://creativecommons.org/ns#"
   xmlns:rdf="http://www.w3.org/1999/02/22-rdf-syntax-ns#"
   xmlns:svg="http://www.w3.org/2000/svg"
   xmlns="http://www.w3.org/2000/svg"
   xmlns:sodipodi="http://sodipodi.sourceforge.net/DTD/sodipodi-0.dtd"
   xmlns:inkscape="http://www.inkscape.org/namespaces/inkscape"
   width="210mm"
   height="297mm"
   id="svg2"
   version="1.1"
   inkscape:version="0.48.3.1 r9886"
   sodipodi:docname="bird1_2.svg">
  <defs
     id="defs4" />
  <sodipodi:namedview
     id="base"
     pagecolor="#ffffff"
     bordercolor="#666666"
     borderopacity="1.0"
     inkscape:pageopacity="0.0"
     inkscape:pageshadow="2"
     inkscape:zoom="2.8"
     inkscape:cx="36.061783"
     inkscape:cy="1009.3887"
     inkscape:document-units="px"
     inkscape:current-layer="layer3"
     showgrid="false"
     inkscape:window-width="1680"
     inkscape:window-height="988"
     inkscape:window-x="-8"
     inkscape:window-y="-8"
     inkscape:window-maximized="1" />
  <metadata
     id="metadata7">
    <rdf:RDF>
      <cc:Work
         rdf:about="">
        <dc:format>image/svg+xml</dc:format>
        <dc:type
           rdf:resource="http://purl.org/dc/dcmitype/StillImage" />
        <dc:title></dc:title>
      </cc:Work>
    </rdf:RDF>
  </metadata>
  <g
     inkscape:groupmode="layer"
     id="layer3"
     inkscape:label="Calque#1">
    <path
       style="fill:#9d9384;fill-opacity:1;stroke:none"
       d="m 47.878027,-54.048443 c -1.23622,-2.448257 -3.813455,-8.93477 -6.735877,-12.691615 -2.922421,-3.756844 -6.190029,-4.78402 -11.664138,-3.45646 -8.27421,-1.195014 -19.8768057,28.678055 -21.5745823,29.266803 -16.4463114,4.273893 -26.4928247,11.527758 -38.8133497,24.609042 -8.974654,8.7561687 -17.422471,16.63532809 -26.196853,24.2511555 11.503142,-3.775483 20.431728,-3.282083 30.390597,-2.8202153 6.829891,0.253299 15.534067,0.9023375 22.4184146,7.0173108 3.86291779,-10.854505 22.5232234,-13.0344301 29.4023824,-23.990325 4.881032,-7.773632 7.982008,-17.219204 8.274766,-26.065233 0.281103,-8.493865 0.112131,-28.340334 14.49864,-16.120463 z"
       id="path5135"
       inkscape:connector-curvature="0"
       sodipodi:nodetypes="csccccccssc" />
  </g>
</svg>
