<?xml version="1.0" encoding="UTF-8" standalone="no"?>
<!-- Created with Inkscape (http://www.inkscape.org/) -->

<svg
   xmlns:dc="http://purl.org/dc/elements/1.1/"
   xmlns:cc="http://creativecommons.org/ns#"
   xmlns:rdf="http://www.w3.org/1999/02/22-rdf-syntax-ns#"
   xmlns:svg="http://www.w3.org/2000/svg"
   xmlns="http://www.w3.org/2000/svg"
   xmlns:sodipodi="http://sodipodi.sourceforge.net/DTD/sodipodi-0.dtd"
   xmlns:inkscape="http://www.inkscape.org/namespaces/inkscape"
   width="210mm"
   height="297mm"
   id="svg2"
   version="1.1"
   inkscape:version="0.48.3.1 r9886"
   sodipodi:docname="cloud1_3.svg">
  <defs
     id="defs4" />
  <sodipodi:namedview
     id="base"
     pagecolor="#ffffff"
     bordercolor="#666666"
     borderopacity="1.0"
     inkscape:pageopacity="0.0"
     inkscape:pageshadow="2"
     inkscape:zoom="3.959798"
     inkscape:cx="18.27369"
     inkscape:cy="1037.8856"
     inkscape:document-units="px"
     inkscape:current-layer="layer4"
     showgrid="false"
     inkscape:window-width="1680"
     inkscape:window-height="988"
     inkscape:window-x="-8"
     inkscape:window-y="-8"
     inkscape:window-maximized="1">
    <inkscape:grid
       type="xygrid"
       id="grid4358" />
  </sodipodi:namedview>
  <metadata
     id="metadata7">
    <rdf:RDF>
      <cc:Work
         rdf:about="">
        <dc:format>image/svg+xml</dc:format>
        <dc:type
           rdf:resource="http://purl.org/dc/dcmitype/StillImage" />
        <dc:title></dc:title>
      </cc:Work>
    </rdf:RDF>
  </metadata>
  <g
     inkscape:label="Calque 1"
     inkscape:groupmode="layer"
     id="layer1">
    <path
       style="fill:#f5f5f5;fill-opacity:1;stroke:none;stroke-opacity:1"
       d="m 4.2857143,-32.280679 c -13.0991941,-3.622473 -30.4525143,-0.878452 -34.6428573,11.785713 -8.189517,-8.277215 -20.641894,17.0157258 -7.5,20.00000099 -18.474392,0 -8.284709,23.55734301 6.428571,16.42857101 -8.271697,12.717748 14.939991,17.942286 17.857143,6.071429 8.5650307,11.17941 29.640837,9.220869 33.928572,1.428572 5.058781,8.591022 25.357143,11.682321 25.357143,-5.714286 7.708464,9.479295 24.183603,2.60818 27.857143,-5.714286 C 74.500958,9.6812131 71.425739,4.5050351 73.928572,4.5050351 91.8426,3.727345 80.8887,-30.293332 64.642857,-20.494966 63.300698,-38.804707 36.059361,-33.768018 27.857143,-27.280679 c -4.431623,-7.893678 -21.1572878,-10.055305 -23.5714287,-5 z"
       id="path3802"
       inkscape:connector-curvature="0"
       sodipodi:nodetypes="cccccccccccc" />
  </g>
  <g
     inkscape:groupmode="layer"
     id="layer4"
     inkscape:label="Calque#1"
     style="display:inline" />
  <g
     inkscape:groupmode="layer"
     id="layer6"
     inkscape:label="Calque#3" />
</svg>
