<?xml version="1.0" encoding="UTF-8" standalone="no"?>
<!-- Created with Inkscape (http://www.inkscape.org/) -->

<svg
   xmlns:dc="http://purl.org/dc/elements/1.1/"
   xmlns:cc="http://creativecommons.org/ns#"
   xmlns:rdf="http://www.w3.org/1999/02/22-rdf-syntax-ns#"
   xmlns:svg="http://www.w3.org/2000/svg"
   xmlns="http://www.w3.org/2000/svg"
   xmlns:sodipodi="http://sodipodi.sourceforge.net/DTD/sodipodi-0.dtd"
   xmlns:inkscape="http://www.inkscape.org/namespaces/inkscape"
   width="210mm"
   height="297mm"
   id="svg2"
   version="1.1"
   inkscape:version="0.48.3.1 r9886"
   sodipodi:docname="cloud2.svg">
  <defs
     id="defs4" />
  <sodipodi:namedview
     id="base"
     pagecolor="#ffffff"
     bordercolor="#666666"
     borderopacity="1.0"
     inkscape:pageopacity="0.0"
     inkscape:pageshadow="2"
     inkscape:zoom="2.8"
     inkscape:cx="16.003965"
     inkscape:cy="1003.95"
     inkscape:document-units="px"
     inkscape:current-layer="layer1"
     showgrid="false"
     inkscape:window-width="1680"
     inkscape:window-height="988"
     inkscape:window-x="-8"
     inkscape:window-y="-8"
     inkscape:window-maximized="1" />
  <metadata
     id="metadata7">
    <rdf:RDF>
      <cc:Work
         rdf:about="">
        <dc:format>image/svg+xml</dc:format>
        <dc:type
           rdf:resource="http://purl.org/dc/dcmitype/StillImage" />
        <dc:title></dc:title>
      </cc:Work>
    </rdf:RDF>
  </metadata>
  <g
     inkscape:label="Calque 1"
     inkscape:groupmode="layer"
     id="layer1">
    <path
       style="fill:#fafafa;stroke:none;stroke-width:1px;stroke-linecap:butt;stroke-linejoin:miter;stroke-opacity:1;fill-opacity:1"
       d="M 2.8571429,-22.280675 C 0.63915572,-30.604503 -13.804782,-29.313967 -17.5,-21.923532 c -0.863577,1.727154 -1.404538,3.904538 2.142857,8.214286 -0.19457,-3.734001 -9.902822,-4.534333 -9.642857,3.571429 -4.430132,9.0054684 6.414632,11.08655599 11.428571,10.35714247 C -23.837675,1.3362022 -24.457325,12.454948 -13.928572,17.719325 -3.3313814,23.01792 2.4829748,14.147897 1.4285714,8.4336111 -0.4342399,15.576468 8.819437,21.44949 17.5,14.50504 22.216029,10.732217 20.890488,5.7574091 21.428571,5.2193255 21.988009,4.6598878 32.560143,8.7870402 34.285714,-1.5663888 34.334225,-14.540441 28.863252,-20.961144 19.642857,-14.423532 c 6.019099,-6.2969 5.683389,-11.016526 1.071429,-12.5 -7.409797,-6.174831 -14.6012544,-3.496864 -17.8571431,4.642857 z"
       id="path3766"
       inkscape:connector-curvature="0"
       sodipodi:nodetypes="ccccccccccccc" />
  </g>
  <g
     inkscape:groupmode="layer"
     id="layer2"
     inkscape:label="Calque" />
</svg>
