<?xml version="1.0" encoding="UTF-8" standalone="no"?>
<!-- Created with Inkscape (http://www.inkscape.org/) -->

<svg
   xmlns:dc="http://purl.org/dc/elements/1.1/"
   xmlns:cc="http://creativecommons.org/ns#"
   xmlns:rdf="http://www.w3.org/1999/02/22-rdf-syntax-ns#"
   xmlns:svg="http://www.w3.org/2000/svg"
   xmlns="http://www.w3.org/2000/svg"
   xmlns:sodipodi="http://sodipodi.sourceforge.net/DTD/sodipodi-0.dtd"
   xmlns:inkscape="http://www.inkscape.org/namespaces/inkscape"
   width="210mm"
   height="297mm"
   id="svg2"
   version="1.1"
   inkscape:version="0.48.3.1 r9886"
   sodipodi:docname="tree1.svg">
  <defs
     id="defs4" />
  <sodipodi:namedview
     id="base"
     pagecolor="#ffffff"
     bordercolor="#666666"
     borderopacity="1.0"
     inkscape:pageopacity="0.0"
     inkscape:pageshadow="2"
     inkscape:zoom="2.8"
     inkscape:cx="77.432536"
     inkscape:cy="1003.95"
     inkscape:document-units="px"
     inkscape:current-layer="layer1"
     showgrid="false"
     inkscape:window-width="1680"
     inkscape:window-height="988"
     inkscape:window-x="-8"
     inkscape:window-y="-8"
     inkscape:window-maximized="1" />
  <metadata
     id="metadata7">
    <rdf:RDF>
      <cc:Work
         rdf:about="">
        <dc:format>image/svg+xml</dc:format>
        <dc:type
           rdf:resource="http://purl.org/dc/dcmitype/StillImage" />
        <dc:title></dc:title>
      </cc:Work>
    </rdf:RDF>
  </metadata>
  <g
     inkscape:label="Calque 1"
     inkscape:groupmode="layer"
     id="layer1">
    <path
       style="fill:#d3d3d3;stroke:none;stroke-width:1px;stroke-linecap:butt;stroke-linejoin:miter;stroke-opacity:1;fill-opacity:1"
       d="m 4.2857143,-32.280679 c -13.0991941,-3.622473 -27.9525143,-2.664166 -39.6428573,7.857142 -4.725625,4.253063 -6.071429,9.270242 -6.071429,15.3571434 0,1.8595833 5.431012,4.2857143 3.571429,4.2857143 -18.474392,0 -27.570423,21.7716293 -16.785714,23.9285713 1.74399,0.348798 3.870059,-0.357143 5.357142,-0.357143 2.236702,0 1.037064,4.771373 2.857143,6.071429 3.263233,2.330881 8.225084,3.60209 12.142858,3.928571 12.079654,1.006638 19.866586,-6.785714 20.714285,-6.785714 0.128406,0 3.050955,4.47343 3.9285718,5 4.0581716,2.434903 9.28116721,3.347646 13.9285715,3.928572 4.2921589,0.536519 8.7411107,-0.492889 12.1428577,-3.214286 0.588281,-0.470625 3.812427,-4.324429 3.928571,-4.285714 8.63021,2.876736 25.357143,11.682321 25.357143,-5.714286 0,-1.287697 1.038666,2.551771 2.142857,3.214286 2.763624,1.658174 8.320165,2.050252 11.428572,1.428571 4.994107,-0.998822 12.310202,-5.418364 14.285714,-10.357143 0.929529,-2.3238219 -2.14569,-7.4999999 0.357143,-7.4999999 3.097949,0 7.017161,1.468464 7.857143,-3.57142863 C 83.47422,-9.1974252 74.627489,-24.423537 64.642857,-24.423537 c -1.842681,0 -9.951403,-8.093181 -13.571428,-8.928571 -2.706812,-0.624649 -30.601655,-1.315941 -23.214286,6.071429 0.854112,0.854111 1.531584,-4.234208 -2.142857,-6.071429 -5.177408,-2.588704 -18.5097848,-6.225539 -21.4285717,1.071429 z"
       id="path3802"
       inkscape:connector-curvature="0" />
  </g>
  <g
     inkscape:groupmode="layer"
     id="layer2"
     inkscape:label="Calque" />
</svg>
