<?xml version="1.0" encoding="UTF-8" standalone="no"?>
<!-- Created with Inkscape (http://www.inkscape.org/) -->

<svg
   xmlns:dc="http://purl.org/dc/elements/1.1/"
   xmlns:cc="http://creativecommons.org/ns#"
   xmlns:rdf="http://www.w3.org/1999/02/22-rdf-syntax-ns#"
   xmlns:svg="http://www.w3.org/2000/svg"
   xmlns="http://www.w3.org/2000/svg"
   xmlns:sodipodi="http://sodipodi.sourceforge.net/DTD/sodipodi-0.dtd"
   xmlns:inkscape="http://www.inkscape.org/namespaces/inkscape"
   width="210mm"
   height="297mm"
   id="svg2"
   version="1.1"
   inkscape:version="0.48.3.1 r9886"
   sodipodi:docname="grass1_2.svg">
  <defs
     id="defs4" />
  <sodipodi:namedview
     id="base"
     pagecolor="#ffffff"
     bordercolor="#666666"
     borderopacity="1.0"
     inkscape:pageopacity="0.0"
     inkscape:pageshadow="2"
     inkscape:zoom="3.959798"
     inkscape:cx="-40.42407"
     inkscape:cy="1029.8666"
     inkscape:document-units="px"
     inkscape:current-layer="layer1"
     showgrid="false"
     inkscape:window-width="1680"
     inkscape:window-height="988"
     inkscape:window-x="-8"
     inkscape:window-y="-8"
     inkscape:window-maximized="1" />
  <metadata
     id="metadata7">
    <rdf:RDF>
      <cc:Work
         rdf:about="">
        <dc:format>image/svg+xml</dc:format>
        <dc:type
           rdf:resource="http://purl.org/dc/dcmitype/StillImage" />
        <dc:title></dc:title>
      </cc:Work>
    </rdf:RDF>
  </metadata>
  <g
     inkscape:label="Calque 1"
     inkscape:groupmode="layer"
     id="layer1">
    <path
       style="fill:#00e100;fill-opacity:1;stroke:none"
       d="m 62.118003,-51.125194 c -25.999031,11.610973 -30.050946,37.770292 -34.76316,34.122373 -3.825708,-2.961639 -8.120158,-12.05212 -2.999069,-26.60089 -10.610867,26.323307 -16.0764097,17.88613 -25.64477,42.1019117 -9.589407,-14.7979607 -9.99879,-25.1568917 -7.3089306,-43.7040127 -0.568319,-6.907507 -15.7646794,34.914499 -16.1096234,42.0062077 -5.439856,-15.0747667 -10.909792,-20.4764327 -26.832352,-28.9431617 -0.53364,-0.260696 -11.946305,-3.688978 -11.08768,-2.698191 18.582349,18.937383 30.890098,38.5093648 19.81769,57.636709 13.460419,5.442411 39.4632444,6.585483 57.670504,5.620918 18.20726,-0.964565 26.665657,-4.916752 40.250033,-7.5465 -14.04465,-16.9346657 -15.094797,-42.390726 7.007358,-71.995364 z"
       id="path3014"
       inkscape:connector-curvature="0"
       sodipodi:nodetypes="csccccccczcc" />
  </g>
</svg>
