<?xml version="1.0" encoding="UTF-8" standalone="no"?>
<!-- Created with Inkscape (http://www.inkscape.org/) -->

<svg
   xmlns:dc="http://purl.org/dc/elements/1.1/"
   xmlns:cc="http://creativecommons.org/ns#"
   xmlns:rdf="http://www.w3.org/1999/02/22-rdf-syntax-ns#"
   xmlns:svg="http://www.w3.org/2000/svg"
   xmlns="http://www.w3.org/2000/svg"
   xmlns:sodipodi="http://sodipodi.sourceforge.net/DTD/sodipodi-0.dtd"
   xmlns:inkscape="http://www.inkscape.org/namespaces/inkscape"
   width="210mm"
   height="297mm"
   id="svg2"
   version="1.1"
   inkscape:version="0.48.3.1 r9886"
   sodipodi:docname="grass2.svg">
  <defs
     id="defs4" />
  <sodipodi:namedview
     id="base"
     pagecolor="#ffffff"
     bordercolor="#666666"
     borderopacity="1.0"
     inkscape:pageopacity="0.0"
     inkscape:pageshadow="2"
     inkscape:zoom="2.8"
     inkscape:cx="77.432536"
     inkscape:cy="1003.95"
     inkscape:document-units="px"
     inkscape:current-layer="layer1"
     showgrid="false"
     inkscape:window-width="1680"
     inkscape:window-height="988"
     inkscape:window-x="-8"
     inkscape:window-y="-8"
     inkscape:window-maximized="1" />
  <metadata
     id="metadata7">
    <rdf:RDF>
      <cc:Work
         rdf:about="">
        <dc:format>image/svg+xml</dc:format>
        <dc:type
           rdf:resource="http://purl.org/dc/dcmitype/StillImage" />
        <dc:title />
      </cc:Work>
    </rdf:RDF>
  </metadata>
  <g
     inkscape:label="Calque 1"
     inkscape:groupmode="layer"
     id="layer1">
    <path
       style="fill:#08ff25;stroke:none;stroke-width:1px;stroke-linecap:butt;stroke-linejoin:miter;stroke-opacity:1;fill-opacity:1"
       d="M -3.2142857,12.005035 C -4.007526,6.9112211 -5.3117091,0.64461428 -8.2142858,-3.7092507 -14.637126,-13.343511 -24.493125,-8.4097863 -33.571429,-26.566394 c -0.39211,-0.78422 6.020353,2.474462 6.785715,2.857143 7.694656,3.847328 12.345004,-1.482493 18.5714282,7.857143 2.8235651,4.235348 4.984655,8.8978815 7.1428572,13.2142859 0.23336663,0.4667332 0.3835757,5.3571429 0.71428574,5.3571429 10.09439206,0 -15.08471014,-35.4491748 -5.71428574,-41.0714288 0.9199412,-0.551965 16.4285716,-5.603965 16.4285716,-3.928571 0,1.078022 -2.1915843,0.01624 -3.2142858,0.357142 -2.1933082,0.731103 -4.8251581,2.864602 -5.7142858,4.642858 -2.635585,5.27117 2.0625924,10.517672 -0.3571428,15.357143 -2.8350233,5.670046 0.7923949,14.2857139 0.7142857,14.2857139 -1.67388718,0 5.9116989,-11.0965509 6.4285715,-11.7857139 7.1241412,-9.498856 36.7046382,-11.104266 33.9285712,0 -2.517152,10.0686076 -7.68242,-8.123076 -16.785714,-3.571429 -14.00833,7.004165 -22.2366336,24.754596 -24.2857144,35 -2.04479522,0.817918 -2.0889281,1.044481 -4.2857143,0 z"
       id="path3810"
       inkscape:connector-curvature="0" />
  </g>
  <g
     inkscape:groupmode="layer"
     id="layer2"
     inkscape:label="Calque" />
</svg>
