<?xml version="1.0" encoding="UTF-8" standalone="no"?>
<!-- Created with Inkscape (http://www.inkscape.org/) -->

<svg
   xmlns:dc="http://purl.org/dc/elements/1.1/"
   xmlns:cc="http://creativecommons.org/ns#"
   xmlns:rdf="http://www.w3.org/1999/02/22-rdf-syntax-ns#"
   xmlns:svg="http://www.w3.org/2000/svg"
   xmlns="http://www.w3.org/2000/svg"
   xmlns:sodipodi="http://sodipodi.sourceforge.net/DTD/sodipodi-0.dtd"
   xmlns:inkscape="http://www.inkscape.org/namespaces/inkscape"
   width="210mm"
   height="297mm"
   id="svg2"
   version="1.1"
   inkscape:version="0.48.3.1 r9886"
   sodipodi:docname="grass1_4.svg">
  <defs
     id="defs4" />
  <sodipodi:namedview
     id="base"
     pagecolor="#ffffff"
     bordercolor="#666666"
     borderopacity="1.0"
     inkscape:pageopacity="0.0"
     inkscape:pageshadow="2"
     inkscape:zoom="1.4"
     inkscape:cx="-198.82425"
     inkscape:cy="929.57247"
     inkscape:document-units="px"
     inkscape:current-layer="layer2"
     showgrid="false"
     inkscape:window-width="1680"
     inkscape:window-height="988"
     inkscape:window-x="-8"
     inkscape:window-y="-8"
     inkscape:window-maximized="1" />
  <metadata
     id="metadata7">
    <rdf:RDF>
      <cc:Work
         rdf:about="">
        <dc:format>image/svg+xml</dc:format>
        <dc:type
           rdf:resource="http://purl.org/dc/dcmitype/StillImage" />
        <dc:title></dc:title>
      </cc:Work>
    </rdf:RDF>
  </metadata>
  <g
     inkscape:label="Calque 1"
     inkscape:groupmode="layer"
     id="layer1">
    <path
       style="fill:#00e100;fill-opacity:1;stroke:none"
       d="m 62.118003,-51.125194 c -24.988878,6.812748 -30.050946,37.770292 -34.76316,34.122373 -3.825708,-2.961639 -8.120158,-12.05212 -2.999069,-26.60089 -8.767522,8.635412 -9.049581,23.179578 -14.6846014,30.498383 -5.2724505,-14.378546 -6.0397738,-0.149151 -10.9601686,11.6035287 -2.1660272,-6.5694529 -2.2040485,-0.6561273 -7.2232476,-11.6219727 -2.5679274,-9.757152 -2.7280714,-14.099995 -0.085683,-32.08204 -0.568319,-6.907507 -15.7646794,34.914499 -16.1096234,42.0062077 -0.949052,-2.100107 -4.784679,-18.4407747 -6.773782,-14.5914227 -1.905992,3.688515 -12.75408,-10.783331 -20.05857,-14.351739 -0.53364,-0.260696 -11.946305,-3.688978 -11.08768,-2.698191 6.565992,7.576647 14.287647,18.462499 17.117979,24.717487 2.261095,4.996983 10.06177,25.996862 5.397736,20.58673 -6.170931,-7.1580852 -0.572098,6.440702 -2.698025,12.332492 5.990155,6.3423 16.237683,0.416251 18.684254,5.30217 1.6992,3.853391 11.699313,1.416108 17.2541781,1.757392 5.5548649,0.341284 10.9979525,0.338365 11.7958899,0.246052 0.7979374,-0.09231 6.914799,2.651381 9.936182,-1.684696 2.930825,-4.206116 11.573417,-3.128901 17.550738,-3.207841 7.389537,-0.09759 11.549132,-2.192408 15.755378,-3.000137 4.206247,-0.807729 6.943917,-1.338522 6.943917,-1.338522 C 51.7362,7.4889641 62.154683,-9.6321864 54.451061,-3.664471 c -5.721563,4.43228589 0.41028,-12.204071 2.323161,-15.986516 0.961226,-1.900685 10.77884,-10.304073 21.887959,-20.164116 -5.527846,-3.598343 -16.845409,4.892814 -27.861651,13.489303 1.242998,-12.35002 12.67198,-24.468862 11.317473,-24.799394 z"
       id="path3014"
       inkscape:connector-curvature="0"
       sodipodi:nodetypes="csccccccsssssccszssscssccc" />
  </g>
  <g
     inkscape:groupmode="layer"
     id="layer2"
     inkscape:label="shadow">
    <path
       style="fill:#00d000;fill-opacity:1;stroke:none"
       d="m 59.480899,-50.065595 c -24.98888,6.812748 -26.219985,37.144332 -32.084589,36.086659 -4.539995,-0.818782 -8.834445,-15.80212 -3.891927,-28.743747 C 12.594006,-34.087271 16.240518,-18.114534 8.1054977,-8.1171566 2.8330477,-31.424275 4.0300034,-9.5163076 -3.9261007,-0.44219894 -8.9492736,-3.4402233 -9.7015793,1.0445303 -14.72078,-9.9213148 c -2.56793,-9.7571532 2.093359,-16.7785672 4.735729,-34.7606122 -0.56832,-6.907507 -14.693251,36.5216427 -15.038201,44.32763739 -10.234765,6.64989301 -7.641823,-16.11934739 -9.630923,-12.26999539 -1.90599,3.6885159 -12.218366,-14.890474 -19.522856,-18.458882 -0.53364,-0.260696 -8.732014,-4.581835 -7.873394,-3.591048 6.56599,7.576647 14.466221,17.569643 17.296551,23.824631 2.2611,4.9969828 12.04544,26.960956 6.290597,22.729586 -7.063787,-5.1937991 -1.286385,5.190702 -3.412315,11.082492 5.99016,6.3423 16.594822,-0.655178 19.041402,4.230741 7.031943,0.963347 32.965907,3.85347 33.954207,2.463298 2.580044,-3.629165 13.930415,-5.617553 11.451303,-5.996647 -0.619778,-0.09477 12.192977,0.513712 13.22744,0.134117 1.034464,-0.379595 -9.709363,-1.747271 -8.156589,-2.22294 1.552775,-0.475668 18.884293,-1.130758 19.819446,-1.513751 C 48.39677,19.674318 32.935557,19.56342 32.117157,19.461849 28.843558,19.055566 5.7478104,25.40566 3.2658194,24.909218 0.7838284,24.412775 -22.691548,22.962653 -22.795834,22.313079 c -0.417143,-2.598297 -4.218262,-7.744963 -3.862559,-9.597957 0.355704,-1.852994 -0.13177,-6.1266014 1.792659,-5.5502091 5.331347,1.5968096 1.096895,-15.1120715 9.653033,-5.4682338 8.5561383,9.6438379 14.23622892,8.0085239 17.2576185,3.6724469 2.93082,-4.206116 1.7519814,-5.45032956 7.7293014,-5.52926956 7.3895401,-0.09759 4.0491401,-12.54955044 8.2553801,-13.35727944 4.20625,-0.807729 14.801063,4.5543347 14.801063,4.5543347 -3.37445,-13.3812057 4.186897,-6.5737837 4.34042,-15.2489257 0.128061,-7.236375 12.374566,6.188786 14.287446,2.40634 0.96122,-1.900685 13.457411,-7.089787 24.566531,-16.94983 -5.52785,-3.598343 -16.84541,4.892814 -27.86166,13.489303 1.243,-12.35002 12.67198,-24.468862 11.31748,-24.799394 z"
       id="path3014-1"
       inkscape:connector-curvature="0"
       sodipodi:nodetypes="csccccccsssssccsssssssssszssscsscccc" />
  </g>
</svg>
