<?xml version="1.0" encoding="UTF-8" standalone="no"?>
<!-- Created with Inkscape (http://www.inkscape.org/) -->

<svg
   xmlns:dc="http://purl.org/dc/elements/1.1/"
   xmlns:cc="http://creativecommons.org/ns#"
   xmlns:rdf="http://www.w3.org/1999/02/22-rdf-syntax-ns#"
   xmlns:svg="http://www.w3.org/2000/svg"
   xmlns="http://www.w3.org/2000/svg"
   xmlns:sodipodi="http://sodipodi.sourceforge.net/DTD/sodipodi-0.dtd"
   xmlns:inkscape="http://www.inkscape.org/namespaces/inkscape"
   width="210mm"
   height="297mm"
   id="svg2"
   version="1.1"
   inkscape:version="0.48.3.1 r9886"
   sodipodi:docname="grass1_3.svg">
  <defs
     id="defs4" />
  <sodipodi:namedview
     id="base"
     pagecolor="#ffffff"
     bordercolor="#666666"
     borderopacity="1.0"
     inkscape:pageopacity="0.0"
     inkscape:pageshadow="2"
     inkscape:zoom="1.4"
     inkscape:cx="-198.82425"
     inkscape:cy="929.57247"
     inkscape:document-units="px"
     inkscape:current-layer="layer1"
     showgrid="false"
     inkscape:window-width="1680"
     inkscape:window-height="988"
     inkscape:window-x="-8"
     inkscape:window-y="-8"
     inkscape:window-maximized="1" />
  <metadata
     id="metadata7">
    <rdf:RDF>
      <cc:Work
         rdf:about="">
        <dc:format>image/svg+xml</dc:format>
        <dc:type
           rdf:resource="http://purl.org/dc/dcmitype/StillImage" />
        <dc:title></dc:title>
      </cc:Work>
    </rdf:RDF>
  </metadata>
  <g
     inkscape:label="Calque 1"
     inkscape:groupmode="layer"
     id="layer1">
    <path
       style="fill:#00e100;fill-opacity:1;stroke:none"
       d="m 62.118003,-51.125194 c -24.988878,6.812748 -30.050946,37.770292 -34.76316,34.122373 -3.825708,-2.961639 -8.120158,-12.05212 -2.999069,-26.60089 -8.767522,8.635412 -9.049581,23.179578 -14.6846014,30.498383 -5.2724505,-14.378546 -6.0397738,-0.149151 -10.9601686,11.6035287 -2.1660272,-6.5694529 -2.2040485,-0.6561273 -7.2232476,-11.6219727 -2.5679274,-9.757152 -2.7280714,-14.099995 -0.085683,-32.08204 -0.568319,-6.907507 -15.7646794,34.914499 -16.1096234,42.0062077 -0.949052,-2.100107 -4.784679,-18.4407747 -6.773782,-14.5914227 -1.905992,3.688515 -12.75408,-10.783331 -20.05857,-14.351739 -0.53364,-0.260696 -11.946305,-3.688978 -11.08768,-2.698191 6.565992,7.576647 14.287647,18.462499 17.117979,24.717487 2.261095,4.996983 10.06177,25.996862 5.397736,20.58673 -6.170931,-7.1580852 -0.572098,6.440702 -2.698025,12.332492 5.990155,6.3423 16.237683,0.416251 18.684254,5.30217 1.6992,3.853391 11.699313,1.416108 17.2541781,1.757392 5.5548649,0.341284 10.9979525,0.338365 11.7958899,0.246052 0.7979374,-0.09231 6.914799,2.651381 9.936182,-1.684696 2.930825,-4.206116 11.573417,-3.128901 17.550738,-3.207841 7.389537,-0.09759 11.549132,-2.192408 15.755378,-3.000137 4.206247,-0.807729 6.943917,-1.338522 6.943917,-1.338522 C 51.7362,7.4889641 62.154683,-9.6321864 54.451061,-3.664471 c -5.721563,4.43228589 0.41028,-12.204071 2.323161,-15.986516 0.961226,-1.900685 10.77884,-10.304073 21.887959,-20.164116 -5.527846,-3.598343 -16.845409,4.892814 -27.861651,13.489303 1.242998,-12.35002 12.67198,-24.468862 11.317473,-24.799394 z"
       id="path3014"
       inkscape:connector-curvature="0"
       sodipodi:nodetypes="csccccccsssssccszssscssccc" />
  </g>
</svg>
