<?xml version="1.0" encoding="UTF-8" standalone="no"?>
<!-- Created with Inkscape (http://www.inkscape.org/) -->

<svg
   xmlns:dc="http://purl.org/dc/elements/1.1/"
   xmlns:cc="http://creativecommons.org/ns#"
   xmlns:rdf="http://www.w3.org/1999/02/22-rdf-syntax-ns#"
   xmlns:svg="http://www.w3.org/2000/svg"
   xmlns="http://www.w3.org/2000/svg"
   xmlns:sodipodi="http://sodipodi.sourceforge.net/DTD/sodipodi-0.dtd"
   xmlns:inkscape="http://www.inkscape.org/namespaces/inkscape"
   width="210mm"
   height="297mm"
   id="svg2"
   version="1.1"
   inkscape:version="0.48.3.1 r9886"
   sodipodi:docname="grass1_5.svg">
  <defs
     id="defs4" />
  <sodipodi:namedview
     id="base"
     pagecolor="#ffffff"
     bordercolor="#666666"
     borderopacity="1.0"
     inkscape:pageopacity="0.0"
     inkscape:pageshadow="2"
     inkscape:zoom="2.8"
     inkscape:cx="-39.144302"
     inkscape:cy="1113.5823"
     inkscape:document-units="px"
     inkscape:current-layer="layer1"
     showgrid="false"
     inkscape:window-width="1680"
     inkscape:window-height="988"
     inkscape:window-x="-8"
     inkscape:window-y="-8"
     inkscape:window-maximized="1" />
  <metadata
     id="metadata7">
    <rdf:RDF>
      <cc:Work
         rdf:about="">
        <dc:format>image/svg+xml</dc:format>
        <dc:type
           rdf:resource="http://purl.org/dc/dcmitype/StillImage" />
        <dc:title></dc:title>
      </cc:Work>
    </rdf:RDF>
  </metadata>
  <g
     inkscape:label="Calque 1"
     inkscape:groupmode="layer"
     id="layer1">
    <path
       style="fill:#00e100;fill-opacity:1;stroke:none"
       d="m 64.643384,-48.599813 c -24.988878,6.812748 -31.531999,39.1295559 -34.76316,34.122373 -2.563017,-3.971791 -6.857467,-13.819887 -1.736378,-28.368657 -8.767522,8.635412 -10.312272,24.442269 -15.947292,31.761074 -5.2724505,-14.378546 -8.5651552,-2.169456 -13.48555,9.5832237 -2.1660272,-6.5694529 -2.2040485,-0.6561273 -7.2232476,-11.6219727 -2.5679274,-9.757152 0.8074625,-12.332228 3.4498509,-30.314273 -0.568319,-6.907507 -17.0273703,31.884041 -19.6451573,40.2384407 -0.949052,-2.100107 -2.259298,-17.1780837 -4.248401,-13.3287317 -1.905992,3.688515 -13.006618,-12.551098 -20.311108,-16.119506 -0.53364,-0.260696 -7.905695,-3.183902 -6.036917,-1.940577 8.347223,5.55353 14.792723,16.189656 15.350212,22.444644 0.486909,5.463086 8.041465,27.007014 3.377431,21.5968825 -6.170931,-7.1580852 -4.107632,7.4508545 -6.233559,13.3426445 5.990155,6.3423 16.237683,0.416251 18.684254,5.30217 1.6992,3.853391 11.699313,1.416108 17.2541781,1.757392 5.5548649,0.341284 10.9979525,0.338365 11.7958899,0.246052 0.7979374,-0.09231 6.914799,2.651381 9.936182,-1.684696 2.930825,-4.206116 11.573417,-3.128901 17.550738,-3.207841 7.389537,-0.09759 11.549132,-2.192408 15.755378,-3.000137 4.206247,-0.807729 6.943917,-1.338522 6.943917,-1.338522 C 51.7362,7.4889641 65.942755,-10.389801 58.239133,-4.4220854 52.51757,0.01020048 54.861341,-15.868542 56.774222,-19.650987 57.735448,-21.551672 67.8056,-29.95506 79.419795,-35.774493 73.891949,-39.372836 61.816772,-34.922289 50.80053,-26.3258 52.043528,-38.67582 65.997891,-48.269281 64.643384,-48.599813 z"
       id="path3014"
       inkscape:connector-curvature="0"
       sodipodi:nodetypes="csccccccsssssccszssscssccc" />
  </g>
  <g
     inkscape:groupmode="layer"
     id="layer2"
     inkscape:label="shadow">
    <path
       style="fill:#00d000;fill-opacity:1;stroke:none"
       d="M 56.955518,-47.540214 C 36.007248,-34.414012 37.301524,-12.668725 31.43692,-13.726398 26.896925,-14.54518 22.602475,-29.528518 27.544993,-42.470145 16.634616,-33.834733 19.018437,-18.114534 10.883417,-8.1171566 5.6109672,-31.424275 7.3129992,-8.7586932 -0.64310493,0.31541547 -5.6662778,-2.6826089 -9.7015793,1.0445303 -14.72078,-9.9213148 -17.28871,-19.678468 -8.5868108,-25.689729 -5.9444408,-43.671774 -6.5127608,-50.579281 -20.132616,-7.1501318 -25.023252,-0.35428961 -35.258017,6.2956034 -30.64477,-16.978713 -32.63387,-13.129361 c -1.90599,3.6885156 -4.89476,-13.880322 -12.19925,-17.44873 -0.53364,-0.260696 -12.772624,-5.844525 -9.136085,-3.085971 7.987725,6.059213 10.678149,14.791723 13.508479,21.046711 2.2611,4.9969828 9.520059,28.476185 3.765216,24.244815 -7.063787,-5.1937992 -3.054152,5.44324 -5.180082,11.33503 5.99016,6.3423 16.594822,-0.655178 19.041402,4.230741 7.031943,0.963347 32.965907,3.85347 33.954207,2.463298 2.580044,-3.629165 13.930415,-5.617553 11.451303,-5.996647 -0.619778,-0.09477 12.192977,0.513712 13.22744,0.134117 1.034464,-0.379595 -7.689058,-1.747271 -6.136284,-2.22294 1.552775,-0.475668 16.863988,-1.130758 17.799141,-1.513751 C 48.39677,19.674318 32.935557,19.56342 32.117157,19.461849 28.843558,19.055566 5.7478104,25.40566 3.2658194,24.909218 0.7838284,24.412775 -22.691548,22.962653 -22.795834,22.313079 c -0.417143,-2.598297 -0.177652,-6.987349 0.178051,-8.840343 0.355704,-1.852994 -0.889384,-7.6418298 1.035045,-7.0654375 5.331347,1.5968096 -2.186101,-14.3544571 6.370037,-4.7106194 8.5561383,9.6438379 17.7717628,8.261062 20.7931524,3.924985 2.93082,-4.206116 2.2570577,-5.70286766 8.2343776,-5.78180766 7.38954,-0.09759 0.0085,-12.54955044 4.21477,-13.35727944 4.20625,-0.807729 14.801063,4.5543347 14.801063,4.5543347 -3.37445,-13.3812057 5.702126,-5.8161697 5.855649,-14.4913117 0.128061,-7.236375 10.859337,5.431172 12.772217,1.648726 0.96122,-1.900685 13.709949,-12.393088 27.34445,-14.676987 -5.52785,-3.598343 -19.623329,2.619971 -30.639579,11.21646 1.243,-12.35002 17.217666,-23.963786 15.863166,-24.294318 z"
       id="path3014-1"
       inkscape:connector-curvature="0"
       sodipodi:nodetypes="csccccccsssssccsssssssssszssscsscccc" />
  </g>
  <g
     inkscape:groupmode="layer"
     id="layer3"
     inkscape:label="light">
    <path
       style="fill:#08ff08;fill-opacity:1;stroke:none"
       d="m 65.555839,-48.483457 -8.1313,4.98731 c -6.340347,8.888442 -19.464893,17.376931 -16.619834,28.087971 0.565285,2.128175 -0.630178,7.0792121 -1.829133,9.9208667 -0.339315,0.8042139 1.110418,9.6126381 0.579836,11.2043845 -0.898114,2.6943425 -0.118279,5.0350208 -7.12491,14.4433688 -1.873127,2.515193 15.142077,-1.990485 17.807062,-1.102157 1.949456,0.649819 1.915362,-15.9591902 3.791854,-15.9591902 0.642951,0 -8.657587,-2.48173399 -7.435664,-3.4115968 3.196668,-2.4326103 2.704162,-6.8284855 4.84375,-9.46875 4.19623,-5.178174 -2.27632,-0.1080089 -2.875,-0.90625 -1.172507,-1.563342 -1.325357,-4.527498 -1.59375,-6.40625 -1.515577,-10.609041 14.363148,-22.941825 18.587089,-31.389707 z m -70.8488263,3.920345 -4.3723718,9.568188 c -1.0388219,5.386834 -1.3462879,11.440801 -1.3462879,16.960524 0,4.485024 -1.566134,3.979762 -1.122282,8.4183286 0.09726,0.972623 3.0338169,5.722546 2.6785719,6.4330357 -1.4152489,1.0465544 0.4005538,5.4149872 1.2455357,5.5491071 0.2781983,0.069549 3.2036456,0.015104 4.8303571,-3.9330357 0.8025686,-1.9478888 -1.5983094,-9.6197847 -2.3101423,-10.9010837 -3.3113574,-5.960443 0.3966193,-24.841835 0.3966193,-32.095064 z m 80.9560593,7.841824 c -0.544006,-0.192425 -7.0228,5.439609 -9.575191,7.353902 -1.437727,1.078296 -3.686699,2.107451 -5.226364,3.03125 -2.156997,1.294199 -6.920945,-1.162561 -8.723124,3.523636 1.751343,6.634796 16.829195,-4.912115 18.314336,-7.448445 3.182809,-5.435615 16.909986,-2.321971 5.210343,-6.460343 z m -47.106621,-5.964196 -5.487129,7.120446 c -1.419223,5.737531 -3.611284,11.08197 -3.962179,17.047181 1.670955,7.429322 1.17632,8.5581692 0.361607,14.642857 0.787448,0 2.562727,-2.4876397 4.267857,-3.2410714 C 27.73766,-8.883983 26.25,-11.710292 26.25,-12.28125 c 0,-5.271125 -1.136045,-7.3615 -2.174197,-12.552257 -0.780971,-3.904853 3.478669,-9.679662 4.480648,-17.851977 z m -71.127448,10.849619 c -2.23673,-1.970101 -8.618882,-2.54637 -9.460253,-2.209821 4.848732,2.844957 10.257516,8.205961 14.150381,12.098826 6.790498,6.790498 1.335407,23.6971738 5.29045,24.7950743 8.819643,2.4482893 1.363739,-24.6920603 -9.980578,-34.6840793 z"
       id="path3791"
       inkscape:connector-curvature="0"
       sodipodi:nodetypes="ccsssssssssscccssccsscssscssccccssscscsss" />
  </g>
</svg>
