<?xml version="1.0" encoding="UTF-8" standalone="no"?>
<!-- Created with Inkscape (http://www.inkscape.org/) -->

<svg
   xmlns:dc="http://purl.org/dc/elements/1.1/"
   xmlns:cc="http://creativecommons.org/ns#"
   xmlns:rdf="http://www.w3.org/1999/02/22-rdf-syntax-ns#"
   xmlns:svg="http://www.w3.org/2000/svg"
   xmlns="http://www.w3.org/2000/svg"
   xmlns:sodipodi="http://sodipodi.sourceforge.net/DTD/sodipodi-0.dtd"
   xmlns:inkscape="http://www.inkscape.org/namespaces/inkscape"
   width="210mm"
   height="297mm"
   id="svg2"
   version="1.1"
   inkscape:version="0.48.3.1 r9886"
   sodipodi:docname="n_1.svg">
  <defs
     id="defs4" />
  <sodipodi:namedview
     id="base"
     pagecolor="#ffffff"
     bordercolor="#666666"
     borderopacity="1.0"
     inkscape:pageopacity="0.0"
     inkscape:pageshadow="2"
     inkscape:zoom="3.959798"
     inkscape:cx="-9.5565171"
     inkscape:cy="1004.0143"
     inkscape:document-units="px"
     inkscape:current-layer="layer1"
     showgrid="false"
     inkscape:window-width="1680"
     inkscape:window-height="988"
     inkscape:window-x="-8"
     inkscape:window-y="-8"
     inkscape:window-maximized="1" />
  <metadata
     id="metadata7">
    <rdf:RDF>
      <cc:Work
         rdf:about="">
        <dc:format>image/svg+xml</dc:format>
        <dc:type
           rdf:resource="http://purl.org/dc/dcmitype/StillImage" />
        <dc:title />
      </cc:Work>
    </rdf:RDF>
  </metadata>
  <g
     inkscape:label="Calque 1"
     inkscape:groupmode="layer"
     id="layer1">
    <path
       style="fill:#ffab49;fill-opacity:1;stroke:#000000;stroke-width:1;stroke-linecap:butt;stroke-linejoin:miter;stroke-miterlimit:4;stroke-opacity:1;stroke-dasharray:none"
       d="m 2.6148141,-25.203998 c -4.1135667,-3.799365 -14.0694591,-6.756305 -17.3524591,-1.798326 -3.283,4.957979 -2.411178,4.187151 -3.12937,22.8443894 -0.718192,18.6572386 -9.609267,30.2552276 -5.905955,34.1898996 3.703312,3.93467 14.9803138,3.899009 16.6903154,-2.102372 1.710001,-6.001381 -1.6453466,-28.86187555 3.679474,-29.76073 5.3248195,-0.8988547 10.0134323,28.408686 16.3197106,30.933265 6.306278,2.524578 9.995596,1.333791 14.992178,0.06836 C 32.90529,27.905057 37.956092,9.7106893 38.536003,-0.09726345 39.115915,-9.9052157 41.02892,-20.502391 38.979271,-26.182581 c -2.049649,-5.68019 -11.084236,-5.717564 -13.814352,-3.001496 -2.730115,2.71607 -1.118781,10.871939 -0.588102,19.3449103 0.530679,8.4729726 0.768096,17.8067782 -4.52721,19.0095724 C 14.754301,10.373198 6.7283808,-21.404633 2.6148141,-25.203998 z"
       id="path3021"
       inkscape:connector-curvature="0"
       sodipodi:nodetypes="zzzzzzzzzzzzzz" />
  </g>
</svg>
