<?xml version="1.0" encoding="UTF-8" standalone="no"?>
<!-- Created with Inkscape (http://www.inkscape.org/) -->

<svg
   xmlns:dc="http://purl.org/dc/elements/1.1/"
   xmlns:cc="http://creativecommons.org/ns#"
   xmlns:rdf="http://www.w3.org/1999/02/22-rdf-syntax-ns#"
   xmlns:svg="http://www.w3.org/2000/svg"
   xmlns="http://www.w3.org/2000/svg"
   xmlns:sodipodi="http://sodipodi.sourceforge.net/DTD/sodipodi-0.dtd"
   xmlns:inkscape="http://www.inkscape.org/namespaces/inkscape"
   width="210mm"
   height="297mm"
   id="svg2"
   version="1.1"
   inkscape:version="0.48.3.1 r9886"
   sodipodi:docname="p_1.svg">
  <defs
     id="defs4" />
  <sodipodi:namedview
     id="base"
     pagecolor="#ffffff"
     bordercolor="#666666"
     borderopacity="1.0"
     inkscape:pageopacity="0.0"
     inkscape:pageshadow="2"
     inkscape:zoom="5.6"
     inkscape:cx="-13.802546"
     inkscape:cy="1034.1641"
     inkscape:document-units="px"
     inkscape:current-layer="layer1"
     showgrid="false"
     inkscape:window-width="1680"
     inkscape:window-height="988"
     inkscape:window-x="-8"
     inkscape:window-y="-8"
     inkscape:window-maximized="1" />
  <metadata
     id="metadata7">
    <rdf:RDF>
      <cc:Work
         rdf:about="">
        <dc:format>image/svg+xml</dc:format>
        <dc:type
           rdf:resource="http://purl.org/dc/dcmitype/StillImage" />
        <dc:title />
      </cc:Work>
    </rdf:RDF>
  </metadata>
  <g
     inkscape:label="Calque 1"
     inkscape:groupmode="layer"
     id="layer1">
    <path
       style="fill:#ffab49;fill-opacity:1;stroke:#000000;stroke-width:1;stroke-linecap:butt;stroke-linejoin:miter;stroke-opacity:1;stroke-miterlimit:4;stroke-dasharray:none"
       d="m 13.052242,-35.986405 c -8.6590015,-0.114697 -16.5884502,1.329125 -20.8181313,7.08595 -4.2296817,5.756824 -2.1803495,13.917892 -4.6073947,26.0492993 -2.427046,12.1314075 -7.919782,34.2287807 -5.392265,37.2898097 2.527517,3.061028 13.2275334,2.850899 17.79320102,-2.121567 C 4.5933195,27.344621 -6.7668669,4.2443334 2.3652901,-0.29515264 11.497447,-4.8346386 22.371847,3.1647128 27.985974,-2.4167196 c 5.614127,-5.5814319 9.829456,-17.1932744 5.426205,-24.2904654 -4.403252,-7.09719 -11.700935,-9.164523 -20.359937,-9.27922 z m -0.445466,10.097478 c 5.58152,-0.226951 11.529976,5.290167 6.978974,11.780391 -6.331839,9.0298781 -17.7325199,-1.005384 -12.7106427,-8.591713 1.4124002,-2.133655 3.5475947,-3.099871 5.7316687,-3.188678 z"
       id="path3021"
       inkscape:connector-curvature="0"
       sodipodi:nodetypes="zzzzzzzzzssss" />
  </g>
</svg>
