<?xml version="1.0" encoding="UTF-8" standalone="no"?>
<!-- Created with Inkscape (http://www.inkscape.org/) -->

<svg
   xmlns:dc="http://purl.org/dc/elements/1.1/"
   xmlns:cc="http://creativecommons.org/ns#"
   xmlns:rdf="http://www.w3.org/1999/02/22-rdf-syntax-ns#"
   xmlns:svg="http://www.w3.org/2000/svg"
   xmlns="http://www.w3.org/2000/svg"
   xmlns:sodipodi="http://sodipodi.sourceforge.net/DTD/sodipodi-0.dtd"
   xmlns:inkscape="http://www.inkscape.org/namespaces/inkscape"
   width="210mm"
   height="297mm"
   id="svg2"
   version="1.1"
   inkscape:version="0.48.3.1 r9886"
   sodipodi:docname="tree5.svg">
  <defs
     id="defs4" />
  <sodipodi:namedview
     id="base"
     pagecolor="#ffffff"
     bordercolor="#666666"
     borderopacity="1.0"
     inkscape:pageopacity="0.0"
     inkscape:pageshadow="2"
     inkscape:zoom="0.98994949"
     inkscape:cx="34.817082"
     inkscape:cy="1244.2027"
     inkscape:document-units="px"
     inkscape:current-layer="layer3"
     showgrid="false"
     inkscape:window-width="1680"
     inkscape:window-height="988"
     inkscape:window-x="-8"
     inkscape:window-y="-8"
     inkscape:window-maximized="1" />
  <metadata
     id="metadata7">
    <rdf:RDF>
      <cc:Work
         rdf:about="">
        <dc:format>image/svg+xml</dc:format>
        <dc:type
           rdf:resource="http://purl.org/dc/dcmitype/StillImage" />
        <dc:title />
      </cc:Work>
    </rdf:RDF>
  </metadata>
  <g
     inkscape:label="feuilles"
     inkscape:groupmode="layer"
     id="layer1"
     style="display:inline">
    <path
       style="fill:#249e16;fill-opacity:1;stroke:none"
       d="m -17.038731,-165.89891 c -13.285202,-2.6375 -13.022932,23.41491 -26.158977,16.76035 -13.136046,-6.65456 -2.753817,-9.92642 -9.240884,-16.48474 -6.487067,-6.55832 -16.760465,3.43815 -16.760465,-9.91876 0,-13.3569 -6.392335,-14.07744 -6.342445,-24.05144 0.04989,-9.974 17.980629,-17.17002 8.805713,-20.58242 -4.610355,-1.71472 -9.797216,-8.6539 -10.06769,-14.00459 -0.270474,-5.35069 16.093912,-12.13405 13.696566,-19.06242 -1.712373,-4.94878 -1.38903,-18.00008 4.697651,-17.1699 6.086682,0.83018 2.06771,-15.35352 16.201547,-17.40381 14.133837,-2.05029 15.941657,-8.51305 22.46582,-6.51928 6.524163,1.99377 10.5446451,11.79348 11.5307817,8.29032 0.9861365,-3.50315 7.84883436,-7.73428 14.0274574,-4.52532 6.1786229,3.20896 3.994981,7.08485 3.4479966,10.23991 -0.5469843,3.15506 0.5969557,6.15317 8.3182683,6.15317 7.721313,0 22.391478,-18.62969 33.35398,-8.9997 10.962502,9.62999 7.029028,13.28754 9.150626,16.34694 2.121598,3.0594 13.608575,-6.6341 20.061665,3.85727 6.45309,10.49137 -3.246972,10.10456 -3.120703,10.92891 0.126269,0.82435 8.982691,1.46842 10.699555,7.07164 1.716864,5.60322 -3.143284,12.89011 -4.90396,15.42905 -1.760676,2.53895 9.122353,4.55359 4.07159,16.9437 -5.050762,12.3901 -9.868647,4.91623 -12.987889,9.41426 -3.119243,4.49804 7.769729,14.71857 0.979172,20.15866 -6.790556,5.4401 -9.179466,-6.57777 -17.891849,0.78125 -8.712383,7.35903 -2.309156,15.06777 -7.962703,21.25992 -5.653547,6.19215 -10.775722,-7.34746 -22.82679,-13.27037 -12.051068,-5.9229 -29.9588323,10.99491 -43.244034,8.3574 z"
       id="path3777"
       inkscape:connector-curvature="0"
       sodipodi:nodetypes="zzzzzszszzzzzzzzzzzzzzzzzzzz" />
  </g>
  <g
     inkscape:groupmode="layer"
     id="layer3"
     inkscape:label="feuilles2"
     style="display:inline">
    <path
       style="fill:#1f8a13;fill-opacity:1;stroke:none"
       d="m -31.823297,-216.14355 c -0.637683,0 -3.796798,3.15233 -5.3125,3.53125 -8.34554,2.08639 -13.246142,-11.54144 -10.09375,5.8125 -2.225587,-1.22031 -10.36143,2.66684 2.53125,6.0625 -1.769346,0.88467 -3.898032,3.0033 -4.9375,4.5625 -0.459885,0.68983 -0.954071,3.53125 -0.125,3.53125 0.794147,0 0.645932,-1.55476 1.28125,-2.03125 2.82846,-2.12134 7.518865,-3.90006 9.84375,-5.0625 4.353004,-2.1765 9.200443,4.0625 11.375,4.0625 1.097565,0 -0.4965,-2.205 -0.28125,-3.28125 0.593206,-2.96603 1.858048,-5.3893 4.0625,-7.59375 1.669104,-1.65219 4.101569,-3.42928 6.3125,-4.03125 -1.696429,-0.70718 -4.683759,2.03125 -8.84375,2.03125 -2.178316,0 -5.060507,-1.02129 -5.5625,-3.53125 -0.264658,-1.32329 1.099498,-4.0625 -0.25,-4.0625 z m 3.542047,-28.0127 c 0,-0.10482 -0.849678,3.62231 -4.03125,5.53125 -1.439785,0.86387 -3.699638,0.65858 -5.0625,-0.25 -0.165931,-0.11062 -1.632847,-1.3984 -1.78125,-1.25 -7.705375,9.55728 -4.534522,4.08961 -11.15625,3.78125 0.825971,2.06493 4.166351,4.2399 2.59375,5.8125 -0.832683,0.83268 -9.411893,-1.81626 -4.8125,1.25 2.341654,1.5611 4.392383,4.10244 6.8125,5.3125 0.706215,0.35311 4.542022,-0.007 6.0625,0.5 2.433079,0.81102 7.738127,3.88688 9.84375,1.78125 0.73615,-0.73615 -0.325415,-2.60292 1.03125,-3.28125 6.615828,-1.0112 1.338701,-11.09763 6.5625,-15.90625 3.593979,-2.85714 -6.0625,3.31576 -6.0625,-3.28125 z m 78,1.3125 c -0.462439,0.0459 -1.224311,0.80522 -2.5,2.71875 -0.942648,1.41397 -1.864271,2.93783 -1.75,4.6875 -7.985594,0.004 -3.53801,1.51607 -4.5625,8.6875 -0.05204,0.3643 -1.178593,6.8125 -1,6.8125 1.428571,0 1.657645,-2.63879 3.03125,-3.03125 3.138806,-0.8968 5.318824,0.40941 7.5625,1.53125 0.952381,0.47619 1.980943,-1.17505 3.03125,-1 0.913362,0.15223 5.927742,2.63476 6.5625,2 0.706982,-0.70698 -0.106933,-10.70068 -0.75,-11.34375 -0.462987,-0.46299 -2.318264,0.46299 -2.78125,0 -1.436054,-1.43605 2.451537,-6.17346 1.78125,-6.84375 -1.649453,-1.64945 -6.259824,3.07321 -7.34375,2.53125 -1.266089,-0.63304 0.106068,-6.88777 -1.28125,-6.75 z M 10.34375,-232.5 c -0.7340056,-0.0916 -2.8113536,1.91377 -4.03125,2.21875 -3.0043953,0.7511 -4.7986203,0.42129 -7.5625,-0.5 -0.3525819,-0.11753 2.4060854,6.10638 1.75,6.3125 -0.80938545,4.04693 2.8336713,7.3125 7.34375,7.3125 0.5120432,0 -0.28125,-0.98796 -0.28125,-1.5 0,-1.82813 0.5662023,-4.45409 1.53125,-6.0625 1.716039,-2.86007 -1.7729171,1.35625 -1,-3.28125 0.1871904,-1.12314 2.5,-3.814 2.5,-4.03125 0,-0.29018 -0.08061,-0.44762 -0.25,-0.46875 z m 59.660714,27.32589 c -3.355051,2.23671 -9.450826,10.23967 -12.794643,5.78125 -0.4507,-0.60093 -4.979152,-4.73062 -5.272321,-5.70089 0.217168,1.61451 2.546257,6.07309 -2.370536,10.51339 -4.916793,4.44031 -15.223684,3.32149 -18.785714,-0.29464 -0.320381,-0.32038 -5.674833,0.86233 -6.03125,1.21875 -18.3196122,4.46907 -39.167528,16.28927 -47.71875,15.15625 -3.382108,-0.67643 -4.735499,-5.95874 -5.3125,-8.84375 -0.0249,-0.12452 0.01622,-3.28125 0,-3.28125 -1.135676,0 -5.255991,7.54854 -6.5625,8.59375 -2.342302,1.87384 -4.67408,2.33291 -7.59375,2.75 -3.820344,0.54576 -5.912084,-4.03125 -7.0625,-4.03125 -1.333746,0 0.745881,6.3641 -4.03125,2.78125 -1.619365,-1.21452 -4.811919,-8.85251 -4.8125,-8.84375 -3.421659,0.44643 -3.19246,3.1431 -4.84375,3.96875 -2.543564,5.95454 -4.572087,17.45192 5.34375,15.46875 1.53637,-0.30727 6.802883,-0.64697 7.919643,-0.14286 5.538267,2.5 -0.64552,17.95446 9.410714,16.51786 4.261329,-0.60876 4.956542,-14.43368 6.169643,-9.52679 0.881427,3.5653 1.673691,5.11472 4.459821,3.70983 2.938453,-1.48171 4.853099,-7.87075 7.165179,-9.02679 0.422638,-0.21132 6.462968,2.348 7.5625,2.53125 3.75203,0.62534 9.3406866,-0.99694 11.875,-3.53125 0.3820674,-0.38207 5.6822003,0.0434 6.5625,-0.25 2.9729897,-0.991 6.5488543,-3.54964 8.34375,-6.0625 0.867011,-1.21381 -0.241662,-4.3125 1.25,-4.3125 1.029897,0 4.494007,5.11247 10.09375,4.3125 1.980759,-0.28296 6.400501,-2.93903 6.883929,-2.77679 6.91716,2.32143 3.747306,4.84151 4.209821,5.41965 2.784449,3.48056 6.86299,6.69923 11.049107,5.95982 7.18344,-1.26884 -0.21183,-11.50423 6.138393,-15.94643 0.525316,-0.36748 1.854445,-5.11161 2.495536,-5.11161 5.368167,0 6.891193,2.52565 8.879464,-1.45089 0.387591,-0.77518 4.673331,3.32861 5.495536,3.60268 1.6426,0.54753 3.558554,-1.45824 4.53125,-2.67411 2.784942,-3.48118 -1.683036,-7.88406 -1.683036,-11.52232 0,-1.5104 4.562542,-5.09371 4.924107,-11.33929 -7.714136,-4.82307 -2.490824,2.2051 -5.888393,6.38393 z m -18.066964,0.0804 c -0.08995,-0.66872 -0.15625,-1.06752 -0.15625,-0.9375 0,0.21714 0.04311,0.56305 0.15625,0.9375 z"
       id="path3770"
       inkscape:connector-curvature="0"
       sodipodi:nodetypes="ssccssssssccssssssccssscsccssscsssssssssssssscsssssscsczccccsssssccsssssssssssssssssssssccccc" />
  </g>
  <g
     inkscape:groupmode="layer"
     id="layer6"
     inkscape:label="feuilles3">
    <path
       style="fill:#27ac18;fill-opacity:1;stroke:none"
       d="m -26.792987,-288.88436 c -5.301115,3.18585 -9.5625,6.68325 -9.5625,13.90625 0,2.21441 -4.719996,-0.22833 -6.5625,1 -6.625509,4.41701 -2.333332,13.45833 -5.0625,16.1875 -11.350809,11.35081 -3.773446,18.34961 11.125,14.625 5.40565,-1.35141 5.046719,-7.57797 7.5625,-10.09375 0.433109,-0.43311 7.452095,3.14166 9.59375,1 1.874116,-1.87412 0.03975,-8.63908 2.03125,-8.0625 7.343948,2.12623 9.8802547,-5.37855 10.5109447,-8.28107 1.649859,-7.59286 8.7930408,-6.66796 12.0207367,-5.43702 7.9476036,3.03094 8.8752796,-15.16526 2.9043238,-17.11349 -5.9709562,-1.94823 -8.43480078,3.93087 -14.2455355,4.96875 -5.8107347,1.03788 -10.7541247,-8.44582 -20.3154697,-2.69967 z m 74.1875,3.125 c -1.416647,0.0488 -3.196297,0.55127 -5.46875,1.6875 -4.463458,2.23172 -7.824604,6.0416 -8.59375,11.125 -15.258367,0 6.0625,16.85773 6.0625,17.65625 0,0.65391 -4.481867,0.74093 -5.0625,1.03125 -3.239037,1.61951 0.749518,8.81202 2.03125,10.09375 5.641708,5.64171 23.432214,-4.88028 23.75,-4.5625 5.095826,5.09583 12.482657,9.26734 18.1875,3.5625 7.005866,-7.00587 -8.966885,-12.65304 -8.59375,-16.1875 0.505076,-4.78425 -2.242979,-5.90274 -4.0625,-6.8125 -2.248732,-1.12437 -9.318513,0.0252 -10.59375,-1.25 -3.227102,-3.22711 -0.0064,-16.6075 -7.65625,-16.34375 z m -44.0109452,22.78442 c -2.2729537,0.0408 -4.428424,0.93951 -5.9062502,3.15625 -3.901301,5.85195 -0.0077,13.88869 5.0625002,15.15625 7.9739262,1.99348 10.3265982,-7.59375 12.0937502,-7.59375 1.596281,0 5.314338,8.87316 9.625,4.5625 9.694465,-9.69447 -4.38667,-13.77892 -12.65625,-12.125 -2.1908392,-1.8399 -5.2963811,-3.20866 -8.2187502,-3.15625 z m 65.2296952,28.65308 c -2.748945,0.18394 -5.162246,2.61447 -4.96875,10.34375 -11.304119,1.98975 -16.000207,5.55048 -14.15625,11.625 2.421596,7.26479 9.864731,4.85619 12.09375,3.59375 -0.678287,2.11797 2.618486,11.55304 8.125,7.53125 7.346098,-5.36536 11.61773,-8.22103 14.522321,-11.33482 3.081476,-3.30341 1.132213,-6.615 -2.723214,-17.11607 -2.047448,-5.57666 -6.215359,-0.69412 -7.964286,0.20089 -0.820225,-1.26553 -1.897683,-5.04656 -4.928571,-4.84375 z"
       id="path3848"
       inkscape:connector-curvature="0"
       sodipodi:nodetypes="sssssssssszzssscsssssssssssssscsscccssscs" />
  </g>
  <g
     inkscape:groupmode="layer"
     id="layer2"
     inkscape:label="tronc"
     style="display:inline">
    <path
       style="fill:#9e6616;fill-opacity:1;stroke:none"
       d="m -8.6140391,-177.78267 c 1.7493833,25.65746 -6.3464729,44.81118 -3.8373189,73.12328 2.219144,25.039779 5.9804564,43.996864 4.2325384,69.778746 -0.967423,14.269543 2.7072654,16.876657 -8.6181924,32.8709458 -7.027963,9.9251849 -29.016465,8.5339961 -26.302901,28.4041192 15.321248,-10.35575 4.236606,-5.617361 16.852516,-7.667321 10.575602,-1.71843 -12.181991,8.417766 -3.675233,25.033846 4.126763,-5.55455 14.278507,-13.166497 15.464775,-14.578846 5.9490366,-7.082816 16.4971489,0.224098 12.4717161,12.724098 C 16.965313,43.630636 7.700731,29.271688 11.480852,23.807077 21.22493,16.426536 27.803007,35.244744 33.923181,40.547367 46.847128,33.291089 32.534953,24.576996 35.138404,21.064841 40.871659,13.330458 49.369418,17.534696 65.426342,24.167775 56.914751,2.160544 36.784732,10.074854 33.551536,1.4852654 30.318341,-7.104323 24.283993,-15.530292 23.255615,-20.720607 c -2.115817,-10.67872 -1.695272,-30.440387 -2.772711,-41.316255 -2.121439,-21.414208 -2.715641,-21.582686 -4.590225,-43.208288 -1.208576,-13.9424 -2.32626,-25.72777 0.0044,-43.66805 2.980584,-22.94308 1.572292,-31.94062 3.026169,-41.66841 0.72694,-4.8639 25.707018,1.47401 21.840973,-2.50958 -2.613839,-2.69331 4.266836,-8.20394 -3.023471,-6.40066 -3.155852,0.78061 -9.432426,0.56642 -9.509998,-2.92328 -0.123217,-5.54311 6.212957,-13.82183 9.463133,-15.645 8.762172,-4.91509 16.828672,-5.20776 18.61123,-7.77826 0.01123,-0.0157 -4.93679,-2.8924 -5.17269,-3.23257 -1.255946,-1.81111 2.272708,-5.13114 1.389823,-7.67741 -1.185705,-3.41963 -27.636637,18.13314 -30.578142,19.54706 -3.448707,1.6577 -10.90891,17.36386 -12.2943071,16.36497 -2.76349,-1.99251 0.4007571,-32.731 -6.114935,-23.3352 -2.69871432,3.89162 4.3524817,30.70152 -5.2336557,23.78978 -6.3814265,-4.60109 -10.3980702,-18.86171 -13.8704992,-21.36538 -4.428558,-3.19305 -9.269986,-12.25842 -13.8705,-16.81956 -5.417145,0.71607 2.463186,13.10061 -15.131453,6.36416 3.205895,9.24597 20.12774,11.68206 27.110521,31.82078 0.317093,0.91452 2.642314,4.82679 2.20667,5.455 -3.745664,5.40135 -31.065905,11.22561 -29.634167,15.35482 12.555184,-1.50877 5.155585,5.46503 15.003618,3.70736 6.634139,-1.91397 16.627702,-5.18642 21.2705629,-1.91809 z"
       id="path3001"
       inkscape:connector-curvature="0"
       sodipodi:nodetypes="cssscscscccscsssssssssscsssssssccssccc" />
  </g>
  <g
     inkscape:groupmode="layer"
     id="layer4"
     inkscape:label="tronc2">
    <path
       style="fill:#7a4f11;fill-opacity:1;stroke:none;display:inline"
       d="m -8.4987987,-176.94618 c 1.74938,25.65746 -4.2131963,46.9004 -2.4087493,75.26614 2.2191404,34.884666 6.6947364,43.996855 4.9468164,69.778745 -0.9674238,14.26954 0.5644129,14.733793 -10.7610464,30.7280823 -7.02796,9.92519 -29.016463,8.534 -26.302899,28.4041187 15.321249,-10.355748 3.879463,-12.045929 16.495376,-14.095889 10.5756,-1.71843 -11.824851,14.846339 -3.318097,31.462419 4.12677,-5.55455 10.349939,-19.952214 11.536209,-21.364564 5.949039,-7.082818 20.4257203,7.009814 16.4002903,19.509814 C 17.080552,44.467126 2.1270672,24.733085 7.3357591,19.62562 17.079828,12.24508 27.918242,36.081226 34.038422,41.383856 32.676651,28.41329 26.935906,21.842059 29.539356,18.329899 c 5.73325,-7.73438 19.945299,0.04129 36.002229,6.674359 C 51.672852,9.7827416 34.574708,5.96718 27.952486,12.321757 23.304903,16.781503 12.841271,12.799312 10.010676,14.770608 7.9908009,16.1773 3.8907197,24.262331 -3.3627872,18.574167 -6.2717577,16.292967 -9.2915359,16.511516 -7.1003819,9.4333732 -6.5546684,7.6705406 -0.30062445,-4.6579706 -0.55771945,-5.9555506 -2.6735393,-16.634271 1.3184391,-38.895931 0.24099912,-49.771801 -1.8804409,-71.186011 -0.68892659,-81.711633 -2.5635166,-103.33723 c -1.20857,-13.9424 -2.6838004,-32.87068 -0.3531428,-50.81091 0.7451475,-5.73577 1.6177757,-16.79479 2.61957498,-21.1227 1.00179928,-4.32792 -1.50954638,-5.59024 -0.24771455,-8.64526 1.2618318,-3.05501 1.24609297,-2.09435 2.77132337,-4.01141 0.7626225,-0.95854 15.4876416,10.09828 15.7164456,6.57221 0.261444,-4.02908 -1.050907,-10.07563 -0.154888,-10.53268 4.38091,-2.23463 26.957023,3.61687 23.09098,-0.36672 -2.61384,-2.69331 1.052547,-5.3468 -6.237766,-3.54352 -3.15585,0.78061 -13.360991,0.92357 -13.438561,-2.56613 -0.12322,-5.54311 6.927236,-16.67898 10.177416,-18.50215 8.762173,-4.91509 10.400101,-5.92204 12.182661,-8.49254 0,0 7.920353,-2.53526 7.684453,-2.87543 -1.25595,-1.81111 2.27271,-5.13114 1.38982,-7.67741 -1.1857,-3.41963 -27.636633,18.13314 -30.578143,19.54706 -3.44871,1.6577 -14.8374814,24.86386 -16.2228818,23.86497 -2.76349,-1.99251 4.3293318,-40.231 -2.1863589,-30.8352 -2.69872003,3.89162 1.8524803,36.41581 -7.73366,29.50407 -6.3814203,-4.60109 -8.6123563,-13.50457 -12.0847853,-16.00824 -4.42855,-3.19305 -6.76998,-11.54414 -11.3705,-16.10528 -5.417141,0.71607 0.677476,1.3149 -16.917164,-5.42155 3.205895,9.24597 20.12774,11.68206 27.11052,31.82078 0.31709,0.91452 6.57907,10.54683 6.135241,11.16929 -5.888517,8.25849 -29.637332,6.58275 -27.848451,7.85482 2.912329,6.70551 -0.558701,7.25074 9.28933,5.49307 6.63414,-1.91397 16.627699,-5.18642 21.2705693,-1.91809 z"
       id="path3001-1"
       inkscape:connector-curvature="0"
       sodipodi:nodetypes="cssscscscccscssssssssssssssssscsssssssccsscccc" />
  </g>
  <g
     inkscape:groupmode="layer"
     id="layer5"
     inkscape:label="tronc3">
    <path
       style="fill:#bb791a;fill-opacity:1;stroke:none;display:inline"
       d="m 11.331335,-187.76991 c 1.749383,25.65746 -2.1885677,56.02003 0.320586,84.33213 2.219145,25.03978 6.990609,47.027318 5.242691,72.809208 -0.967423,14.26954 11.798638,20.9172603 0.473181,36.9115501 C 10.33983,16.208168 -2.2657875,13.317519 -7.8522644,10.167695 -13.163283,14.398796 -23.87028,24.950512 -24.368602,36.697391 -20.241839,31.142838 -13.237847,24.38785 -12.051579,22.9755 -6.1025431,15.89268 11.960438,24.566895 7.9350049,37.066895 21.370618,22.628894 8.0654258,9.7851733 19.421691,14.927165 29.165769,7.546625 29.17785,29.900359 35.29803,35.202989 48.22197,27.946709 31.889495,13.67678 34.492945,10.16462 40.226205,2.4302399 41.147811,7.6446325 57.204741,14.277702 47.177922,-4.6990701 38.15958,12.306613 34.92638,3.7170328 31.69319,-4.8725572 25.65884,-13.298527 24.63046,-18.488847 c -2.115815,-10.67872 -1.69527,-30.44038 -2.772709,-41.31625 -2.121439,-21.41421 -2.715641,-21.58269 -4.590225,-43.208293 -1.208576,-13.9424 -4.290546,-26.62063 -1.959886,-44.56091 2.980584,-22.94308 2.643721,-35.51205 2.847598,-45.95412 0.096,-4.91699 23.921301,1.11687 20.055261,-2.86672 -2.61384,-2.69331 7.838258,-4.81109 0.547958,-3.00781 -3.15586,0.78061 -4.115817,0.98801 -6.448905,-0.0154 -6.415812,-2.75921 -5.077289,-5.49551 -7.382958,-11.35929 8.435144,-10.26598 -9.379523,10.57358 -13.901948,12.17303 -8.401958,-34.6984 -0.316393,7.8761 -11.34859072,0.45458 -16.40756828,-20.6545 -17.46771828,-22.835 -8.69086348,-3.03046 12.2062665,14.7302 9.39816098,3.42451 20.3461432,13.41055 z"
       id="path3001-7"
       inkscape:connector-curvature="0"
       sodipodi:nodetypes="csssccscccscssssssssscccccc" />
  </g>
</svg>
