<?xml version="1.0" encoding="UTF-8" standalone="no"?>
<!-- Created with Inkscape (http://www.inkscape.org/) -->

<svg
   xmlns:dc="http://purl.org/dc/elements/1.1/"
   xmlns:cc="http://creativecommons.org/ns#"
   xmlns:rdf="http://www.w3.org/1999/02/22-rdf-syntax-ns#"
   xmlns:svg="http://www.w3.org/2000/svg"
   xmlns="http://www.w3.org/2000/svg"
   xmlns:sodipodi="http://sodipodi.sourceforge.net/DTD/sodipodi-0.dtd"
   xmlns:inkscape="http://www.inkscape.org/namespaces/inkscape"
   width="210mm"
   height="297mm"
   id="svg2"
   version="1.1"
   inkscape:version="0.48.3.1 r9886"
   sodipodi:docname="tree1.svg">
  <defs
     id="defs4" />
  <sodipodi:namedview
     id="base"
     pagecolor="#ffffff"
     bordercolor="#666666"
     borderopacity="1.0"
     inkscape:pageopacity="0.0"
     inkscape:pageshadow="2"
     inkscape:zoom="0.7"
     inkscape:cx="282.53292"
     inkscape:cy="951.71851"
     inkscape:document-units="px"
     inkscape:current-layer="layer2"
     showgrid="false"
     inkscape:window-width="1680"
     inkscape:window-height="988"
     inkscape:window-x="-8"
     inkscape:window-y="-8"
     inkscape:window-maximized="1" />
  <metadata
     id="metadata7">
    <rdf:RDF>
      <cc:Work
         rdf:about="">
        <dc:format>image/svg+xml</dc:format>
        <dc:type
           rdf:resource="http://purl.org/dc/dcmitype/StillImage" />
        <dc:title />
      </cc:Work>
    </rdf:RDF>
  </metadata>
  <g
     inkscape:label="Calque 1"
     inkscape:groupmode="layer"
     id="layer1">
    <path
       style="fill:#249e16;fill-opacity:1;stroke:none"
       d="m -18.55396,-179.03089 c -12.657709,2.15613 -25.551207,18.57625 -38.785884,12.21466 -3.946042,-1.89676 -1.026362,-8.55169 -2.674892,-10.9289 -3.244383,-4.67851 -10.69955,0.74122 -10.69955,-10.92891 0,-15.04368 3.230209,-14.94409 8.02467,-21.85782 0.455872,-0.65739 -4.012338,-20.4123 -4.012338,-23.14357 0,-16.12331 -1.080525,-44.15422 9.807921,-55.9303 1.550066,-1.67642 4.425532,2.61855 5.795595,0.64288 6.661665,-9.6063 7.885668,-18.91743 20.507477,-20.57207 18.168147,-2.38172 8.990184,3.32093 13.374447,9.64316 0.164424,0.23711 6.41523,-3.085 7.133029,-3.21439 4.4687597,-0.8055 9.09327981,0.16476 13.3744477,1.92863 2.6786868,1.10364 5.2297493,3.26387 4.4581492,7.71453 -0.3223686,1.85946 -3.1124271,5.14301 -1.7832572,5.14301 14.1134553,0 39.2136083,-16.89508 53.0519543,-1.92863 3.035895,3.28338 -1.185156,9.2199 -0.445823,10.28603 3.503863,5.05267 15.148267,-3.22799 20.061665,3.85727 1.931865,2.7858 -3.120703,14.86862 -3.120703,10.92891 0,-1.73519 9.927968,5.95898 10.699555,7.07164 3.672294,5.29555 -2.986575,12.66413 -4.90396,15.42905 -1.603967,2.31297 3.566514,5.08637 3.566514,8.3574 0,9.38736 -8.74094,12.60468 -12.482813,18.00056 -2.496612,3.60019 6.162103,10.84958 -3.566514,18.64343 -3.852496,3.08634 -14.815551,4.64962 -17.386773,8.3574 -2.731714,3.9392 4.638288,7.36478 -0.891635,9.64316 -9.817782,4.045 -17.281468,-5.24122 -25.857248,-7.71453 -15.341327,-9.28156 -30.9012153,15.47687 -43.244034,8.3574 z"
       id="path3777"
       inkscape:connector-curvature="0" />
  </g>
  <g
     inkscape:groupmode="layer"
     id="layer2"
     inkscape:label="Calque">
    <path
       style="fill:#9e6616;fill-opacity:1;stroke:none"
       d="m -11.471182,-179.92553 c 3.4987667,51.31491 -0.751802,102.409693 -11.033352,151.8306 -2.91308,14.00249 -9.488171,26.4776202 -13.240023,40.00329 -1.906293,6.87233 -15.76193,23.30376 -15.76193,28.63871 0,2.07246 24.788794,-22.44046 25.21909,-21.81997 2.292279,3.30553 -0.529342,13.93771 3.467624,16.81956 2.698192,1.94545 6.199426,-9.8489 7.250489,-11.36456 0.949037,-1.36853 5.288301,8.63708 6.6200107,8.63708 0.787679,0 0.362823,-5.52362 0.945715,-6.36417 C -7.4693063,25.6846 6.1180038,37.45522 7.4431355,38.27416 10.524509,40.17849 32.44838,51.76543 33.923181,49.63874 36.42871,46.02568 21.23505,17.0794 24.781261,19.63627 c 3.013533,2.1728 14.671764,12.23576 17.022889,5.455 3.483853,-10.04764 -7.400407,-36.4414 -9.457162,-46.82203 -2.115815,-10.67872 -2.705425,-21.85409 -3.782864,-32.729958 -2.121439,-21.414208 -7.582575,-42.015973 -9.457159,-63.641572 -1.208576,-13.9424 -6.045615,-27.01277 -7.250489,-40.91244 -3.9960126,-46.09888 17.68727,-39.59759 34.676251,-64.09616 1.861225,-2.68395 7.989837,-0.157 9.772395,-2.7275 0.01123,-0.0157 -2.916485,-2.38732 -3.152385,-2.72749 -1.255946,-1.81111 0.252403,-5.63622 -0.630482,-8.18249 -1.185705,-3.41963 -27.636637,18.13314 -30.578142,19.54706 -3.448707,1.6577 -10.90891,17.36386 -12.2943071,16.36497 -2.76349,-1.99251 -0.1043188,-31.21577 -6.6200113,-21.81997 -2.69871429,3.89162 4.857558,29.18629 -4.7285794,22.27455 -6.3814265,-4.60109 -10.3980702,-18.86171 -13.8704992,-21.36538 -4.428558,-3.19305 -10.178797,-11.49602 -13.8705,-16.81956 -4.406992,-6.355 -18.750017,-4.07198 -15.131453,6.36416 3.205895,9.24597 20.12774,11.68206 27.110521,31.82078 0.317093,0.91452 2.642314,4.82679 2.20667,5.455 -3.745664,5.40135 -29.803214,12.23576 -28.371476,16.36497 4.633689,13.36381 32.15434,-11.82897 32.15434,-1.36374 z"
       id="path3001"
       inkscape:connector-curvature="0" />
  </g>
</svg>
