<?xml version="1.0" encoding="UTF-8" standalone="no"?>
<!-- Created with Inkscape (http://www.inkscape.org/) -->

<svg
   xmlns:dc="http://purl.org/dc/elements/1.1/"
   xmlns:cc="http://creativecommons.org/ns#"
   xmlns:rdf="http://www.w3.org/1999/02/22-rdf-syntax-ns#"
   xmlns:svg="http://www.w3.org/2000/svg"
   xmlns="http://www.w3.org/2000/svg"
   xmlns:sodipodi="http://sodipodi.sourceforge.net/DTD/sodipodi-0.dtd"
   xmlns:inkscape="http://www.inkscape.org/namespaces/inkscape"
   width="210mm"
   height="297mm"
   id="svg2"
   version="1.1"
   inkscape:version="0.48.3.1 r9886"
   sodipodi:docname="tree3.svg">
  <defs
     id="defs4" />
  <sodipodi:namedview
     id="base"
     pagecolor="#ffffff"
     bordercolor="#666666"
     borderopacity="1.0"
     inkscape:pageopacity="0.0"
     inkscape:pageshadow="2"
     inkscape:zoom="0.98994949"
     inkscape:cx="34.817082"
     inkscape:cy="1203.7966"
     inkscape:document-units="px"
     inkscape:current-layer="layer2"
     showgrid="false"
     inkscape:window-width="1680"
     inkscape:window-height="988"
     inkscape:window-x="-8"
     inkscape:window-y="-8"
     inkscape:window-maximized="1" />
  <metadata
     id="metadata7">
    <rdf:RDF>
      <cc:Work
         rdf:about="">
        <dc:format>image/svg+xml</dc:format>
        <dc:type
           rdf:resource="http://purl.org/dc/dcmitype/StillImage" />
        <dc:title></dc:title>
      </cc:Work>
    </rdf:RDF>
  </metadata>
  <g
     inkscape:label="feuilles"
     inkscape:groupmode="layer"
     id="layer1"
     style="display:inline">
    <path
       style="fill:#249e16;fill-opacity:1;stroke:none"
       d="m -17.038731,-165.89891 c -13.285202,-2.6375 -13.022932,23.41491 -26.158977,16.76035 -13.136046,-6.65456 -2.753817,-9.92642 -9.240884,-16.48474 -6.487067,-6.55832 -16.760465,3.43815 -16.760465,-9.91876 0,-13.3569 -6.392335,-14.07744 -6.342445,-24.05144 0.04989,-9.974 17.980629,-17.17002 8.805713,-20.58242 -4.610355,-1.71472 -9.797216,-8.6539 -10.06769,-14.00459 -0.270474,-5.35069 16.093912,-12.13405 13.696566,-19.06242 -1.712373,-4.94878 -1.38903,-18.00008 4.697651,-17.1699 6.086682,0.83018 2.06771,-15.35352 16.201547,-17.40381 14.133837,-2.05029 15.941657,-8.51305 22.46582,-6.51928 6.524163,1.99377 10.5446451,11.79348 11.5307817,8.29032 0.9861365,-3.50315 7.84883436,-7.73428 14.0274574,-4.52532 6.1786229,3.20896 3.994981,7.08485 3.4479966,10.23991 -0.5469843,3.15506 0.5969557,6.15317 8.3182683,6.15317 7.721313,0 22.391478,-18.62969 33.35398,-8.9997 10.962502,9.62999 7.029028,13.28754 9.150626,16.34694 2.121598,3.0594 13.608575,-6.6341 20.061665,3.85727 6.45309,10.49137 -3.246972,10.10456 -3.120703,10.92891 0.126269,0.82435 8.982691,1.46842 10.699555,7.07164 1.716864,5.60322 -3.143284,12.89011 -4.90396,15.42905 -1.760676,2.53895 9.122353,4.55359 4.07159,16.9437 -5.050762,12.3901 -9.868647,4.91623 -12.987889,9.41426 -3.119243,4.49804 7.769729,14.71857 0.979172,20.15866 -6.790556,5.4401 -9.179466,-6.57777 -17.891849,0.78125 -8.712383,7.35903 -2.309156,15.06777 -7.962703,21.25992 -5.653547,6.19215 -10.775722,-7.34746 -22.82679,-13.27037 -12.051068,-5.9229 -29.9588323,10.99491 -43.244034,8.3574 z"
       id="path3777"
       inkscape:connector-curvature="0"
       sodipodi:nodetypes="zzzzzszszzzzzzzzzzzzzzzzzzzz" />
  </g>
  <g
     inkscape:groupmode="layer"
     id="layer2"
     inkscape:label="tronc"
     style="display:inline">
    <path
       style="fill:#9e6616;fill-opacity:1;stroke:none"
       d="m -8.6140391,-177.78267 c 1.7493833,25.65746 -6.3464729,44.81118 -3.8373189,73.12328 2.219144,25.039779 5.9804564,43.996864 4.2325384,69.778746 -0.967423,14.269543 2.7072654,16.876657 -8.6181924,32.8709458 -7.027963,9.9251849 -29.016465,8.5339961 -26.302901,28.4041192 15.321248,-10.35575 4.236606,-5.617361 16.852516,-7.667321 10.575602,-1.71843 -12.181991,8.417766 -3.675233,25.033846 4.126763,-5.55455 14.278507,-13.166497 15.464775,-14.578846 5.9490366,-7.082816 16.4971489,0.224098 12.4717161,12.724098 C 16.965313,43.630636 7.700731,29.271688 11.480852,23.807077 21.22493,16.426536 27.803007,35.244744 33.923181,40.547367 46.847128,33.291089 32.534953,24.576996 35.138404,21.064841 40.871659,13.330458 49.369418,17.534696 65.426342,24.167775 56.914751,2.160544 36.784732,10.074854 33.551536,1.4852654 30.318341,-7.104323 24.283993,-15.530292 23.255615,-20.720607 c -2.115817,-10.67872 -1.695272,-30.440387 -2.772711,-41.316255 -2.121439,-21.414208 -2.715641,-21.582686 -4.590225,-43.208288 -1.208576,-13.9424 -2.32626,-25.72777 0.0044,-43.66805 2.980584,-22.94308 1.572292,-31.94062 3.026169,-41.66841 0.72694,-4.8639 25.707018,1.47401 21.840973,-2.50958 -2.613839,-2.69331 4.266836,-8.20394 -3.023471,-6.40066 -3.155852,0.78061 -9.432426,0.56642 -9.509998,-2.92328 -0.123217,-5.54311 6.212957,-13.82183 9.463133,-15.645 8.762172,-4.91509 16.828672,-5.20776 18.61123,-7.77826 0.01123,-0.0157 -4.93679,-2.8924 -5.17269,-3.23257 -1.255946,-1.81111 2.272708,-5.13114 1.389823,-7.67741 -1.185705,-3.41963 -27.636637,18.13314 -30.578142,19.54706 -3.448707,1.6577 -10.90891,17.36386 -12.2943071,16.36497 -2.76349,-1.99251 0.4007571,-32.731 -6.114935,-23.3352 -2.69871432,3.89162 4.3524817,30.70152 -5.2336557,23.78978 -6.3814265,-4.60109 -10.3980702,-18.86171 -13.8704992,-21.36538 -4.428558,-3.19305 -9.269986,-12.25842 -13.8705,-16.81956 -5.417145,0.71607 2.463186,13.10061 -15.131453,6.36416 3.205895,9.24597 20.12774,11.68206 27.110521,31.82078 0.317093,0.91452 2.642314,4.82679 2.20667,5.455 -3.745664,5.40135 -31.065905,11.22561 -29.634167,15.35482 12.555184,-1.50877 5.155585,5.46503 15.003618,3.70736 6.634139,-1.91397 16.627702,-5.18642 21.2705629,-1.91809 z"
       id="path3001"
       inkscape:connector-curvature="0"
       sodipodi:nodetypes="cssscscscccscsssssssssscsssssssccssccc" />
  </g>
</svg>
